<svg xmlns="http://www.w3.org/2000/svg" width="214" height="214"><path fill-rule="evenodd" d="M208.1 42.8v12.8c0 6.5-5.3 11.8-11.8 11.8h-1.9l-4.6 128.2c0 8.5-6.9 15.4-15.4 15.4H43.2c-8.4 0-15.3-6.8-15.4-15.3L21.2 67.4h-1.9c-6.5 0-11.8-5.3-11.8-11.8V42.7c0-6.5 5.3-11.8 11.8-11.8h47c-1.4-2.3-2.2-5.1-2.2-8v-5c0-8.5 6.9-15.4 15.4-15.4h56.7c8.5 0 15.4 6.9 15.4 15.4v5c0 2.9-.8 5.7-2.2 8h47c6.5 0 11.8 5.3 11.7 11.9zm-135-19.9c0 3.5 2.9 6.4 6.4 6.4h56.7c3.5 0 6.4-2.9 6.4-6.4v-5c0-3.5-2.9-6.4-6.4-6.4H79.5c-3.5 0-6.4 2.9-6.4 6.4v5zm112.1 46.9H30.3l6.5 125.9c0 3.5 2.9 6.4 6.4 6.4h131.2c3.5 0 6.4-2.9 6.4-6.4v-.2l4.4-125.7zm13.9-14.1V42.8c0-1.5-1.2-2.7-2.7-2.7H19.3c-1.5 0-2.7 1.2-2.7 2.7v12.9c0 1.5 1.2 2.7 2.7 2.7h177.1c1.5 0 2.7-1.2 2.7-2.7z" fill="#676767"/><path d="M124.3 82.6l.9 100.1m26-100.1l.9 100.1m-62.4-100l.9 100.1m-28-100.1l.9 100.1" fill="none" stroke="#676767" stroke-linecap="round" stroke-linejoin="round" stroke-width="10"/></svg>