<svg xmlns="http://www.w3.org/2000/svg" viewBox="0 0 383.7 282.6"><path d="M279.4 59.9h-47c1.4-2.3 2.2-5.1 2.2-8v-5c0-8.5-6.9-15.4-15.4-15.4h-56.7c-8.5 0-15.4 6.9-15.4 15.4v5c0 2.9.8 5.7 2.2 8h-47c-6.5 0-11.8 5.3-11.8 11.8v12.9c0 6.5 5.3 11.8 11.8 11.8h1.9l6.6 128.3c.1 8.5 7 15.3 15.4 15.3h131.2c8.5 0 15.4-6.9 15.4-15.4l4.6-128.2h1.9c6.5 0 11.8-5.3 11.8-11.8V71.8c.1-6.6-5.2-11.9-11.7-11.9zm-123.3-13c0-3.5 2.9-6.4 6.4-6.4h56.7c3.5 0 6.4 2.9 6.4 6.4v5c0 3.5-2.9 6.4-6.4 6.4h-56.7c-3.5 0-6.4-2.9-6.4-6.4v-5zm107.7 177.6v.2c0 3.5-2.9 6.4-6.4 6.4H126.2c-3.5 0-6.4-2.9-6.4-6.4l-6.5-125.9h154.9l-4.4 125.7zm18.3-139.8c0 1.5-1.2 2.7-2.7 2.7H102.3c-1.5 0-2.7-1.2-2.7-2.7V71.8c0-1.5 1.2-2.7 2.7-2.7h177.1c1.5 0 2.7 1.2 2.7 2.7v12.9z" fill="#676767"/><path d="M207.3 111.6l.9 100.1m26-100.1l.9 100.1m-62.4-100l.9 100.1m-28-100.1l.9 100.1" fill="none" stroke="#676767" stroke-width="10" stroke-linecap="round" stroke-linejoin="round" stroke-miterlimit="10"/></svg>