<svg xmlns="http://www.w3.org/2000/svg" viewBox="0 0 65 49" width="65" height="49">
	<style>
		tspan { white-space:pre }
		.shp0 { fill: #ffffff } 
	</style>
	<g id="Layer">
		<path id="Layer" class="shp0" d="M64.43 23.09L36.43 48.04C31.71 45 28.06 43.56 25.37 42.92C24.8 42.79 22.92 43.01 22.48 43.24C19.4 44.64 15.41 45.96 11.89 45.96C10.3 45.96 8.81 45.7 7.55 45.06C3.8 43.17 0.95 38.82 0.95 34.88C0.95 27.86 5.26 23.35 11.95 23.35C17.5 23.35 22 27.89 22 33.5C22 38.05 18.33 41.76 13.82 41.76C10.11 41.76 7.1 38.72 7.1 34.97C7.1 31.83 9.67 29.3 12.81 29.4C14.08 29.43 15.25 30.07 16.08 31.07C18.39 33.95 16.84 37.15 14.27 37.79C12.4 38.24 10.46 36.93 10.18 34.97C9.96 33.44 11.22 32.51 13.44 32.51L13.44 34.11C12.49 34.11 11.73 34.36 11.73 34.65C11.73 36.06 13.51 37.09 14.93 35.48C15.38 35 15.66 34.08 15.54 33.44C15.25 32.06 14.05 31.03 12.62 31.03C10.43 31.03 8.69 32.83 8.69 35C8.69 37.85 11 40.19 13.82 40.19C17.47 40.19 20.42 37.21 20.42 33.53C20.42 28.82 16.61 24.98 11.95 24.98C6.15 24.98 2.54 28.79 2.54 34.91C2.54 38.21 5.04 42.05 8.24 43.62C10.81 44.87 14.49 44.36 17.88 43.3C18.33 43.17 20.04 42.18 20.04 42.18L52.16 16.46C52.19 16.43 60.78 14.92 64.43 23.09Z" />
	</g>
	<path id="Layer" class="shp0" d="M51.11 12.27C51.11 13.42 50.95 14.54 50.64 15.56L41.06 23.15L39.48 24.4L23.62 36.93L23.62 36.93C23.97 35.81 24.16 34.59 24.16 33.34C24.16 26.87 18.99 21.59 12.49 21.2L12.49 21.2L41.89 0.51C47.21 1.89 51.11 6.63 51.11 12.27Z" />
</svg>