<svg xmlns="http://www.w3.org/2000/svg" width="65" height="49"><style>.shp0{fill:#fff}</style><g id="Layer"><path id="Layer" class="shp0" d="M64.43 23.09l-28 24.95c-4.72-3.04-8.37-4.48-11.06-5.12-.57-.13-2.45.09-2.89.32-3.08 1.4-7.07 2.72-10.59 2.72-1.59 0-3.08-.26-4.34-.9C3.8 43.17.95 38.82.95 34.88c0-7.02 4.31-11.53 11-11.53C17.5 23.35 22 27.89 22 33.5c0 4.55-3.67 8.26-8.18 8.26-3.71 0-6.72-3.04-6.72-6.79 0-3.14 2.57-5.67 5.71-5.57 1.27.03 2.44.67 3.27 1.67 2.31 2.88.76 6.08-1.81 6.72-1.87.45-3.81-.86-4.09-2.82-.22-1.53 1.04-2.46 3.26-2.46v1.6c-.95 0-1.71.25-1.71.54 0 1.41 1.78 2.44 3.2.83.45-.48.73-1.4.61-2.04-.29-1.38-1.49-2.41-2.92-2.41-2.19 0-3.93 1.8-3.93 3.97 0 2.85 2.31 5.19 5.13 5.19 3.65 0 6.6-2.98 6.6-6.66 0-4.71-3.81-8.55-8.47-8.55-5.8 0-9.41 3.81-9.41 9.93 0 3.3 2.5 7.14 5.7 8.71 2.57 1.25 6.25.74 9.64-.32.45-.13 2.16-1.12 2.16-1.12l32.12-25.72c.03-.03 8.62-1.54 12.27 6.63z"/></g><path id="Layer" class="shp0" d="M51.11 12.27c0 1.15-.16 2.27-.47 3.29l-9.58 7.59-1.58 1.25-15.86 12.53c.35-1.12.54-2.34.54-3.59 0-6.47-5.17-11.75-11.67-12.14L41.89.51c5.32 1.38 9.22 6.12 9.22 11.76z"/></svg>