<svg version="1.1" id="Шар_1" xmlns="http://www.w3.org/2000/svg" x="0" y="0" viewBox="0 0 300 300" xml:space="preserve"><style>.st0{fill:#fff}</style><path class="st0" d="M265.7 145.8l-12.2-15-20.5-44-37.8-.3V74.6c0-.7-.1-1.4-.4-2-1.3-3.1-4.1-3.1-6-3.1h-64.6c-32.9 0-65.8.1-65.8.1-2.8 0-5 2.3-5 5 0 2.8 2.2 5 5 5 44.5-.1 109-.2 126.8-.1v54.1c0 2.8 2.2 5 5 5h56.7l10 12.3v46.5h-14.2c-2.3-13.5-14-23.8-28.2-23.8-14 0-25.7 10.1-28.1 23.4h-46.6v.9c-2.1-13.7-14-24.3-28.3-24.3-14 0-25.8 10.2-28.1 23.6H59.1c-2.8 0-5 2.2-5 5s2.2 5 5 5h24.3c2.4 13.4 14.1 23.6 28.1 23.6 14.3 0 26.2-10.6 28.3-24.3v.6h46.5c2.3 13.5 14 23.8 28.2 23.8 14 0 25.7-10.1 28.1-23.4h19.3c2.8 0 5-2.2 5-5V149c-.1-1.1-.5-2.3-1.2-3.2zm-70.6-17.3v-32l31.4.3 14.8 31.8h-46.2zm-83.6 92.2c-10.2 0-18.6-8.3-18.6-18.6s8.3-18.6 18.6-18.6 18.6 8.3 18.6 18.6-8.4 18.6-18.6 18.6zm102.9 0c-10.3 0-18.6-8.3-18.6-18.6s8.3-18.6 18.6-18.6c10.2 0 18.6 8.3 18.6 18.6s-8.3 18.6-18.6 18.6z"/><path class="st0" d="M122.8 109.7h-72c-2.8 0-5-2.2-5-5s2.2-5 5-5h72c2.8 0 5 2.2 5 5s-2.2 5-5 5zm-11.1 29.2H38.2c-2.8 0-5-2.2-5-5s2.2-5 5-5h73.4c2.8 0 5 2.2 5 5s-2.2 5-4.9 5zm-14.4 29.9H49.7c-2.8 0-5-2.2-5-5s2.2-5 5-5h47.5c2.8 0 5 2.2 5 5s-2.2 5-4.9 5z"/></svg>