<svg version="1.1" id="Шар_1" xmlns="http://www.w3.org/2000/svg" x="0" y="0" viewBox="0 0 591.84 335.88" xml:space="preserve"><style>.st0{fill:#555}.st1{fill:#614d9f}.st2{fill:#4058a6}.st3{fill:#72c8ba}.st4{fill:#3493d0}.st5{fill:#b1519e}.st6{fill:#6ebd44}.st7{fill:#d0dc27}.st8{fill:#ffcc02}.st9{fill:#e78824}.st10{fill:#ef4a23}.st11{fill:#444445}.st12{font-family:&apos;Marmelad-Regular&apos;}.st13{font-size:72px}</style><path class="st0" d="M346 153.58c-.27-5.08-.66-10.15-.8-15.23-.45-16.52-.81-33.04-1.23-49.56-.03-1.29-.22-2.59-.45-3.87-1.43-7.69-1.81-15.38.15-23.04.21-.81.58-1.62 1.04-2.32.7-1.06 1.77-1.08 2.36.05.65 1.26 1.22 2.63 1.5 4.02 1.44 7.16 1.07 14.29-.11 21.48-.56 3.39-.39 6.9-.48 10.35-.49 18.81-.95 37.62-1.43 56.43-.01.57-.09 1.13-.13 1.7-.15 0-.29 0-.42-.01zm-.12-68.47c.17-.16.3-.23.35-.34.15-.38.31-.75.38-1.15 1.13-6.81 1.07-13.61-.09-20.41-.09-.52-.41-1-.67-1.62-2.16 3.15-2.08 20.64.03 23.52zm137.48 72.96c2.24-15.73 4.45-31.24 6.65-46.73 4.62-.79 9.12-1.56 13.95-2.39-.52 3.29-.94 6.45-1.52 9.58-1.45 7.83-2.63 15.73-4.59 23.44-1.02 4.03-3.12 7.89-5.3 11.48-1.88 3.11-5.02 4.82-9.19 4.62z"/><path class="st0" d="M483.36 158.07c2.24-15.73 4.45-31.24 6.65-46.73 4.62-.79 9.12-1.56 13.95-2.39-.52 3.29-.94 6.45-1.52 9.58-1.45 7.83-2.63 15.73-4.59 23.44-1.02 4.03-3.12 7.89-5.3 11.48-1.88 3.11-5.02 4.82-9.19 4.62z"/><path class="st0" d="M526.94 98.91c-1.29.2-2.36.18-3.29.54-19.6 7.6-40.43 9.07-60.92 12.19-7 1.07-14.02 2.01-21.04 2.99-.46.06-.92.05-1.57.08-.09-5.22 2.94-8.21 6.81-10.68 5.65-3.61 12.15-4.58 18.54-5.75 9.26-1.7 18.54-3.42 27.88-4.52 4.78-.56 9.79-.2 14.58.51 5.59.83 10.92.53 16.14-1.45 3.68-1.39 7.22-3.14 10.89-4.54 2.07-.79 4.28-1.57 6.46-1.67 6.3-.27 11.03 4.49 11.11 10.79.1 7.87-7.04 14.84-14.91 14.57-5.5-.19-9.75-4.05-10.43-9.52-.13-1.02-.15-2.06-.25-3.54zm8.71-3.87c-2.71 2.68-3 6.72-.65 9.05 2.25 2.23 6.31 2.03 8.95-.45 2.62-2.47 2.99-6.8.77-9.14-2.26-2.37-6.38-2.13-9.07.54zm-40.35 7.89c1.24 1.22 3.61 1.22 4.86.01 1.23-1.2 1.27-3.59.08-4.86-1.25-1.33-3.77-1.33-5.02 0-1.2 1.26-1.16 3.63.08 4.85zm8.64-13.15c-.86.03-1.34.07-1.82.06-2.64-.04-5.29-.09-8.13-.14 1.87-6.05 3.74-12.08 5.6-18.08-2.66-.51-4.68-.66-6.54-1.3-4.37-1.5-7.06-5.93-6.83-10.83.33-7.24 6.7-13.54 13.93-13.8 8.6-.31 13.87 7.73 10.5 16.1-.9 2.23-2.08 4.34-3.03 6.55-2.88 6.77-5.33 13.65-3.68 21.44zm-9.23-35.56c-2.64 2.68-2.86 6.79-.49 9.08 2.38 2.3 6.31 1.94 9.02-.83 2.58-2.64 2.84-6.58.57-8.87-2.27-2.3-6.51-2.01-9.1.62zM156.57 233.29c-12.28 0-24.55-2.53-36.15-7.58-22.2-9.66-39.32-27.39-48.19-49.92-18.31-46.51 4.64-99.25 51.15-117.56 2.57-1.01 5.47.25 6.48 2.82a4.995 4.995 0 01-2.82 6.48c-41.38 16.29-61.8 63.21-45.51 104.59 7.89 20.05 23.12 35.82 42.87 44.42 19.75 8.6 41.67 8.98 61.72 1.09 2.57-1.01 5.47.25 6.48 2.82a4.995 4.995 0 01-2.82 6.48c-10.74 4.25-21.98 6.36-33.21 6.36z"/><path class="st1" d="M170.45 97.1c-2.6.93-5.46-.43-6.39-3.03l-6.56-18.4a5.001 5.001 0 019.42-3.36l6.56 18.4a5.01 5.01 0 01-3.03 6.39z"/><path class="st2" d="M153.42 133.75c-2.6.93-5.46-.43-6.39-3.03l-9.67-27.13a5.001 5.001 0 019.42-3.36l9.67 27.13a5.01 5.01 0 01-3.03 6.39z"/><path class="st3" d="M117.99 203.22c-2.6.93-5.46-.43-6.39-3.03l-8.31-23.31a5.001 5.001 0 019.42-3.36l8.31 23.31c.93 2.61-.43 5.47-3.03 6.39zm-17.98-50.44c-2.6.93-5.46-.43-6.39-3.03l-8.01-22.47a5.001 5.001 0 019.42-3.36l8.01 22.47c.93 2.61-.43 5.47-3.03 6.39z"/><path class="st4" d="M152.91 216.76c-2.6.93-5.46-.43-6.39-3.03l-7.02-19.7a5.001 5.001 0 019.42-3.36l7.02 19.7c.93 2.61-.42 5.47-3.03 6.39zm-16.53-46.37c-2.6.93-5.46-.43-6.39-3.03l-9.67-27.13a5.001 5.001 0 019.42-3.36l9.67 27.13c.93 2.6-.42 5.47-3.03 6.39zm-18.6-52.18c-2.79 1-5.87-.46-6.86-3.26l-7.05-19.77c-1-2.79.46-5.87 3.26-6.86 2.79-1 5.87.46 6.86 3.26l7.05 19.77c1 2.79-.46 5.86-3.26 6.86z"/><path class="st2" d="M172.59 187.55c-2.6.93-5.46-.43-6.39-3.03l-9.51-26.68a5.001 5.001 0 019.42-3.36l9.51 26.68c.93 2.6-.42 5.46-3.03 6.39z"/><path class="st1" d="M206.32 197.73c-2.6.93-5.46-.43-6.39-3.03l-7.02-19.7a5.001 5.001 0 019.42-3.36l7.02 19.7a5.01 5.01 0 01-3.03 6.39zm-16.53-46.37c-2.6.93-5.46-.43-6.39-3.03l-9.67-27.13a5.001 5.001 0 019.42-3.36l9.67 27.13a5.01 5.01 0 01-3.03 6.39z"/><path class="st5" d="M224.8 165.16c-2.6.93-5.46-.43-6.39-3.03l-8.31-23.32a5.001 5.001 0 019.42-3.36l8.31 23.32c.93 2.6-.43 5.46-3.03 6.39zm-17.98-50.45c-2.6.93-5.46-.43-6.39-3.03l-8.01-22.47a5.001 5.001 0 019.42-3.36l8.01 22.47c.93 2.6-.43 5.46-3.03 6.39z"/><path class="st6" d="M164.24 205.84l-23.27 8.29a5.001 5.001 0 01-3.36-9.42l23.27-8.29a5.001 5.001 0 013.36 9.42z"/><path class="st6" d="M190.92 196.33l-26.68 9.51a5.001 5.001 0 01-3.36-9.42l26.68-9.51a5.001 5.001 0 013.36 9.42z"/><path class="st6" d="M213.9 188.14l-22.98 8.19a5.001 5.001 0 01-3.36-9.42l22.98-8.19a5.001 5.001 0 013.36 9.42z"/><path class="st7" d="M227.43 153.22l-19.35 6.9a5.001 5.001 0 01-3.36-9.42l19.35-6.9a5.001 5.001 0 013.36 9.42z"/><path class="st7" d="M208.08 160.12l-26.68 9.51a5.001 5.001 0 01-3.36-9.42l26.68-9.51a5.001 5.001 0 013.36 9.42z"/><path class="st7" d="M181.4 169.63l-26.68 9.51a5.001 5.001 0 01-3.36-9.42l26.68-9.51a5.001 5.001 0 013.36 9.42z"/><path class="st7" d="M154.73 179.14l-27.13 9.67a5.001 5.001 0 01-3.36-9.42l27.13-9.67c2.6-.93 5.46.43 6.39 3.03a5.01 5.01 0 01-3.03 6.39z"/><path class="st7" d="M127.6 188.81l-19.19 6.84a5.001 5.001 0 01-3.36-9.42l19.19-6.84a5.001 5.001 0 013.36 9.42z"/><path class="st8" d="M223.06 124.69l-24.5 8.73a5.001 5.001 0 01-3.36-9.42l24.5-8.73a5.001 5.001 0 013.36 9.42z"/><path class="st8" d="M198.56 133.42l-26.68 9.51a5.001 5.001 0 01-3.36-9.42L195.2 124a5.001 5.001 0 013.36 9.42z"/><path class="st8" d="M171.88 142.93l-26.68 9.51a5.001 5.001 0 01-3.36-9.42l26.68-9.51c2.6-.93 5.46.43 6.39 3.03.93 2.6-.42 5.46-3.03 6.39z"/><path class="st8" d="M145.21 152.44l-27.13 9.67a5.001 5.001 0 01-3.36-9.42l27.13-9.67a5.001 5.001 0 013.36 9.42z"/><path class="st8" d="M118.08 162.11l-24.33 8.67a5.001 5.001 0 01-3.36-9.42l24.33-8.67a5.001 5.001 0 013.36 9.42z"/><path class="st9" d="M208.4 99.82l-19.35 6.9a5.001 5.001 0 01-3.36-9.42l19.35-6.9a5.001 5.001 0 013.36 9.42z"/><path class="st9" d="M189.04 106.72l-26.68 9.51a5.001 5.001 0 01-3.36-9.42l26.68-9.51a5.001 5.001 0 013.36 9.42z"/><path class="st9" d="M162.37 116.23l-26.68 9.51a5.001 5.001 0 01-3.36-9.42l26.68-9.51a5.001 5.001 0 013.36 9.42z"/><path class="st9" d="M135.69 125.74l-27.13 9.67a5.001 5.001 0 01-3.36-9.42l27.13-9.67a5.001 5.001 0 013.36 9.42z"/><path class="st9" d="M108.56 135.41l-19.19 6.84a5.001 5.001 0 01-3.36-9.42l19.19-6.84a5.001 5.001 0 013.36 9.42z"/><path class="st10" d="M126.17 99.04l-23.27 8.29a5.001 5.001 0 01-3.36-9.42l23.27-8.29c2.6-.93 5.46.43 6.39 3.03s-.42 5.46-3.03 6.39z"/><path class="st10" d="M152.85 89.53l-26.68 9.51a5.001 5.001 0 01-3.36-9.42l26.68-9.51a5.001 5.001 0 013.36 9.42z"/><path class="st10" d="M175.83 81.34l-22.98 8.19a5.001 5.001 0 01-3.36-9.42l22.98-8.19a5.001 5.001 0 013.36 9.42z"/><path class="st2" d="M144.48 108.69c-2.76.99-5.8-.46-6.79-3.22l-8.92-25.02c-.99-2.76.46-5.8 3.22-6.79 2.76-.99 5.8.46 6.79 3.22l8.92 25.02c.99 2.77-.45 5.81-3.22 6.79zm18.61 52.18c-2.6.93-5.46-.43-6.39-3.03l-9.67-27.13a5.001 5.001 0 019.42-3.36l9.67 27.13c.92 2.61-.43 5.47-3.03 6.39zm18.36 51.52c-2.6.93-5.46-.43-6.39-3.03l-8.85-24.84a5.001 5.001 0 019.42-3.36l8.85 24.84c.93 2.6-.43 5.46-3.03 6.39z"/><path class="st4" d="M126.72 143.26c-2.6.93-5.46-.43-6.39-3.03l-9.67-27.13a5.001 5.001 0 019.42-3.36l9.67 27.13c.92 2.61-.43 5.47-3.03 6.39zm19.17 53.81c-2.6.93-5.46-.43-6.39-3.03l-9.5-26.68a5.001 5.001 0 019.42-3.36l9.51 26.68c.92 2.6-.44 5.46-3.04 6.39z"/><path class="st1" d="M180.12 124.23c-2.6.93-5.46-.43-6.39-3.03l-9.67-27.13a5.001 5.001 0 019.42-3.36l9.67 27.13a5.01 5.01 0 01-3.03 6.39zm19.18 53.8c-2.6.93-5.46-.43-6.39-3.03l-9.51-26.68a5.001 5.001 0 019.42-3.36l9.51 26.68c.92 2.61-.43 5.47-3.03 6.39z"/><path class="st5" d="M216.49 141.84c-2.6.93-5.46-.43-6.39-3.03l-9.67-27.13a5.001 5.001 0 019.42-3.36l9.67 27.13c.93 2.6-.43 5.46-3.03 6.39z"/><path class="st3" d="M109.68 179.91c-2.6.93-5.46-.43-6.39-3.03l-9.67-27.13a5.001 5.001 0 019.42-3.36l9.67 27.13c.93 2.6-.43 5.46-3.03 6.39z"/><path class="st0" d="M151.88 228.96h10v25.2h-10z"/><path class="st0" d="M180.07 259.16h-46.69c-2.76 0-5-2.24-5-5s2.24-5 5-5h46.69c2.76 0 5 2.24 5 5s-2.24 5-5 5z"/><text transform="translate(245.04 151.357)"><tspan x="0" y="0" class="st11 st12 st13">СВ Т</tspan><tspan x="0" y="70" class="st11 st12 st13">ТКАНИН</tspan></text><path class="st1" d="M442.19 306.65c-23.75 0-41.92-5.63-54.01-16.73-16.34 4.2-32.29 6.33-47.41 6.33-12.99 0-25.58-1.57-37.42-4.67-20.95-5.48-40.08-15.76-56.85-30.56-28.49-25.13-40.13-54.22-40.62-55.44-.71-1.79.18-3.83 1.98-4.54.41-.16.84-.24 1.28-.24 1.45 0 2.73.87 3.26 2.22.11.28 11.68 28.94 38.85 52.86 17.26 15.2 46.87 33.31 89.91 33.31 13.29 0 27.28-1.73 41.62-5.13-8.8-11.37-9.66-23.52-9.71-27.12-.1-7.91 3.08-15.76 8.74-21.54 4.86-4.96 13.91-10.89 29.47-11.01h.38c13.21 0 20.79 5.33 24.82 9.8 5.78 6.41 7.74 14.85 7.12 20.37-1.8 16.1-15.42 25.88-46.79 33.39 10.7 7.77 25.96 11.71 45.41 11.71.88 0 1.78-.01 2.68-.02 32.33-.59 63.99-15.28 84.68-39.28 12.7-14.72 26.87-39.63 22.31-74.69-3.87-29.76-44.13-59.82-113.36-84.64C380.4 80.17 309.27 66 257.33 64.93a3.505 3.505 0 01-3.43-3.57c.04-1.89 1.6-3.43 3.48-3.43h.11C308.99 59 382.51 73.6 440.42 94.28c41.77 14.91 112.68 46.49 118.41 90.47 3.88 29.78-4.41 57.5-23.95 80.16-21.98 25.49-55.57 41.08-89.86 41.71-.95.02-1.9.03-2.83.03zm-30.86-75.27c-10.41.08-18.89 3.16-24.53 8.91-4.37 4.46-6.82 10.49-6.74 16.55.04 3.4.93 15.13 10.33 25.4 31.76-6.99 44.75-14.99 46.25-28.46.43-3.84-1.07-10.14-5.37-14.9-4.48-4.97-11.08-7.49-19.62-7.49l-.32-.01z"/><path d="M257.38 59.43h.06c51.37 1.06 124.7 15.63 182.48 36.26 41.44 14.8 111.8 46.06 117.42 89.25 3.82 29.34-4.34 56.66-23.6 78.99-21.7 25.17-54.88 40.57-88.75 41.19-.94.02-1.88.03-2.81.03-23.77 0-41.78-5.68-53.59-16.89-16.57 4.32-32.56 6.49-47.84 6.49-12.88 0-25.26-1.54-37.04-4.62-20.72-5.42-39.64-15.59-56.24-30.24-28.21-24.89-39.74-53.66-40.21-54.87-.4-1.03.1-2.19 1.13-2.59.24-.09.49-.14.73-.14.8 0 1.55.48 1.86 1.27.11.29 11.71 29.19 39.26 53.44 18.96 16.69 48.65 33.69 90.9 33.69 13.47 0 28.21-1.73 44.28-5.74-9.85-11.43-10.83-24.16-10.88-28.03-.1-7.51 2.93-14.97 8.31-20.47 4.66-4.75 13.37-10.45 28.41-10.56h.37c12.63 0 19.86 5.05 23.7 9.31 5.46 6.06 7.32 14.01 6.74 19.19-1.78 15.93-15.54 25.29-48.69 32.8 11.06 9.28 27.44 13.96 48.81 13.96.89 0 1.8-.01 2.71-.02 32.75-.6 64.82-15.48 85.79-39.8 12.89-14.96 27.29-40.26 22.66-75.86C544.46 117.17 356 65.48 257.33 63.44c-1.1-.02-1.98-.94-1.96-2.04.05-1.09.95-1.97 2.01-1.97m132.49 224.45c33.11-7.19 46.66-15.64 48.25-29.94.46-4.16-1.13-10.96-5.74-16.07-4.78-5.3-11.75-7.99-20.73-7.99h-.34c-10.82.08-19.67 3.32-25.58 9.36-4.64 4.74-7.26 11.16-7.17 17.62.05 3.68 1.03 16.23 11.31 27.02M257.38 56.43c-2.69 0-4.92 2.2-4.98 4.9-.06 2.76 2.14 5.05 4.89 5.1 51.79 1.07 122.73 15.2 180.73 35.99 32.22 11.55 58.3 24.3 77.49 37.89 21.17 14.98 32.9 30.3 34.89 45.53 4.49 34.5-9.46 59.02-21.96 73.51-20.42 23.69-51.67 38.18-83.58 38.76-.89.02-1.78.02-2.65.02-17.5 0-31.51-3.21-41.76-9.56 13.89-3.53 23.75-7.44 30.74-12.16 8.34-5.63 12.88-12.73 13.88-21.71.65-5.85-1.41-14.78-7.5-21.54-4.24-4.7-12.17-10.3-25.93-10.3h-.39c-16.08.12-25.48 6.3-30.53 11.46-5.94 6.06-9.28 14.3-9.17 22.61.05 3.52.85 14.98 8.65 26.15-13.45 3.04-26.57 4.58-39.06 4.58-42.57 0-71.85-17.91-88.92-32.94-26.83-23.62-38.34-52.01-38.45-52.29a4.969 4.969 0 00-4.65-3.16 4.999 4.999 0 00-4.65 6.83c.49 1.24 12.26 30.65 41.02 56.02 16.95 14.96 36.29 25.35 57.47 30.89 11.97 3.13 24.69 4.72 37.8 4.72 15.01 0 30.81-2.08 47.01-6.17 12.37 11 30.67 16.58 54.42 16.58.95 0 1.9-.01 2.86-.03 34.71-.63 68.71-16.42 90.97-42.23 19.83-23 28.23-51.12 24.3-81.34-2.59-19.89-18.28-39.21-46.63-57.41-24.1-15.47-52.87-27.18-72.76-34.28C382.88 72.14 309.16 57.5 257.5 56.43h-.12zm133.54 224.14c-8.5-9.72-9.32-20.57-9.36-23.76-.08-5.66 2.23-11.3 6.31-15.48 5.35-5.46 13.46-8.38 23.46-8.46h.32c8.1 0 14.32 2.35 18.5 6.99 3.81 4.23 5.39 10.11 4.99 13.73-1.4 12.59-13.84 20.21-44.22 26.98z" fill="#fff"/><path class="st0" d="M483.36 158.07c2.24-15.73 4.45-31.24 6.65-46.73 4.62-.79 9.12-1.56 13.95-2.39-.52 3.29-.94 6.45-1.52 9.58-1.45 7.83-2.63 15.73-4.59 23.44-1.02 4.03-3.12 7.89-5.3 11.48-1.88 3.11-5.02 4.82-9.19 4.62zM346.85 81.6c-.08.65-.16 1.29-.27 1.94-.07.39-.23.77-.38 1.15-.04.11-.18.18-.35.34-2.12-2.88-2.19-20.38-.03-23.52.19.46.42.84.56 1.22.22-.83.49-1.64.79-2.44-.04-.4-.09-.67-.14-.76-.58-1.12-1.66-1.11-2.36-.05-.46.7-.83 1.51-1.04 2.32-1.96 7.66-1.59 15.34-.15 23.04.24 1.27.42 2.58.45 3.87.42 16.52.78 33.04 1.23 49.56.14 5.08.53 10.15.8 15.23.13 0 .27.01.4.01.05-.57.12-1.13.13-1.7.48-18.81.94-37.62 1.43-56.43.03-1.13.01-5.23-.05-10.28-.39-1.14-.74-2.31-1.02-3.5z"/></svg>