<svg version="1.1" id="Шар_1" xmlns="http://www.w3.org/2000/svg" x="0" y="0" viewBox="0 0 300 300" xml:space="preserve"><style>.st0{fill:#fff}</style><path class="st0" d="M129.5 185.6h81.3v5h-81.3zm0 20.3h81.3v5h-81.3z"/><path class="st0" d="M209.2 49.5H163c-14.4-20.2-29.6-25.3-37.5-20.1-6.6 4.3-9.5 15.5-3 31.3l-13 15.8V116l-42 115.4 115.2 41.1 20.1-42.4h29.7V78.8l-23.3-29.3zm-81.5-16.8c6-3.9 17.9-.2 30.4 16.8h-26.4l-6.3 7.6c-4.5-12.2-2.8-21.1 2.3-24.4zm52.4 233.6L73.9 228.4l35.5-97v98.8h87.8l-17.1 36.1zm47.4-41.2h-113V78.3l10.3-12.6c.9 1.7 1.9 3.5 3 5.4 8.1 13.5 17.1 21.3 26.5 23.2 2.2 7.3 8.9 12.7 17 12.7 9.8 0 17.7-7.9 17.7-17.7s-7.9-17.7-17.7-17.7-17.7 7.9-17.7 17.7v.8c-7.8-2.2-15.3-9.2-22.4-21-1.4-2.3-2.6-4.5-3.6-6.7l6.5-7.8h72.7l20.7 26v144.5zM170.4 86.6s-4.2 3.8-10.8 4.1c-.1-.5-.1-1-.1-1.5 0-6.4 5.2-11.7 11.7-11.7.7 0 1.5.1 2.2.2-.5 2.6-.5 6.7-3 8.9zm6.9-7.4c3.4 2 5.7 5.8 5.7 10 0 6.4-5.2 11.7-11.7 11.7-4.5 0-8.4-2.6-10.4-6.3 7.5-.7 12.2-5.1 12.3-5.1 2.9-2.7 3.7-7.9 4.1-10.3z"/><path class="st0" d="M130.3 158c-1.2-.3-2.3-.6-3.3-1.1s-2-1.1-2.8-1.8l2.3-3.5c1 .9 2.2 1.5 3.5 2 1.3.4 2.6.7 4.1.7 1.8 0 3.2-.3 4.2-1 1-.6 1.5-1.5 1.5-2.7 0-.8-.2-1.5-.7-2-.4-.5-1-.8-1.7-1.1-.7-.2-1.6-.4-2.7-.6h-.2l-.3-.1c-1.8-.3-3.3-.6-4.4-1.1-1.1-.4-2.1-1.1-2.9-2.2-.8-1-1.2-2.5-1.2-4.4 0-1.7.4-3.1 1.1-4.3s1.9-2.1 3.3-2.7c1.4-.6 3.2-.9 5.2-.9 1 0 1.9.1 2.9.3s1.9.5 2.8.9c.9.4 1.8.9 2.7 1.5l-2.1 3.6c-1-.7-2.1-1.3-3.1-1.7s-2.1-.6-3.1-.6c-1.7 0-3 .3-3.9.9-.9.6-1.4 1.5-1.4 2.6 0 .9.2 1.5.7 2s1.1.9 1.8 1.1c.7.2 1.7.5 3 .7h.6c1.6.3 3 .7 4.1 1.2 1.1.5 2 1.2 2.8 2.2s1.1 2.4 1.1 4.2c0 1.7-.4 3.1-1.2 4.3-.8 1.2-1.9 2.1-3.4 2.7-1.5.6-3.3.9-5.4.9-1.5.4-2.7.3-3.9 0zm31.2-26.6h-3.2l-10 26.7h4.7l1.8-5.1h10.3l1.8 5.1h4.7l-10.1-26.7zm-5.2 17.5l3.7-10.6 3.7 10.6h-7.4zm38.4 5v4.2h-17.6v-26.7h4.4v22.5zm10.3-18.3v7.2h11.1v4.2H205v6.9h13.1v4.2h-17.5v-26.7h17.5v4.2z"/></svg>