<svg xmlns="http://www.w3.org/2000/svg" width="175" height="250"><style>.shp0{fill:#fff}</style><g id="Layer"><path id="Layer" class="shp0" d="M68.5 161.6h81.3v5H68.5v-5zm0 20.3h81.3v5H68.5v-5z"/><path id="Layer" fill-rule="evenodd" class="shp0" d="M171.5 54.8v151.3h-29.7l-20.1 42.4L6.5 207.4 48.5 92V52.5l13-15.8c-6.5-15.8-3.6-27 3-31.3C72.4.2 87.6 5.3 102 25.5h46.2l23.3 29.3zM64.4 33.1l6.3-7.6h26.4C84.6 8.5 72.7 4.8 66.7 8.7c-5.1 3.3-6.8 12.2-2.3 24.4zm71.8 173.1H48.4v-98.8l-35.5 97 106.2 37.9 17.1-36.1zm30.3-149.6l-20.7-26H73.1l-6.5 7.8c1 2.2 2.2 4.4 3.6 6.7 7.1 11.8 14.6 18.8 22.4 21v-.8c0-9.8 7.9-17.7 17.7-17.7 9.8 0 17.7 7.9 17.7 17.7 0 9.8-7.9 17.7-17.7 17.7-8.1 0-14.8-5.4-17-12.7-9.4-1.9-18.4-9.7-26.5-23.2-1.1-1.9-2.1-3.7-3-5.4L53.5 54.3v146.8h113V56.6zm-54.1-2.9c-.7-.1-1.5-.2-2.2-.2-6.5 0-11.7 5.3-11.7 11.7 0 .5 0 1 .1 1.5 6.6-.3 10.8-4.1 10.8-4.1 2.5-2.2 2.5-6.3 3-8.9zm-.2 11.8c-.1 0-4.8 4.4-12.3 5.1 2 3.7 5.9 6.3 10.4 6.3 6.5 0 11.7-5.3 11.7-11.7 0-4.2-2.3-8-5.7-10-.4 2.4-1.2 7.6-4.1 10.3z"/><g id="Layer"><g id="Layer"><path id="Layer" class="shp0" d="M69.3 134c-1.2-.3-2.3-.6-3.3-1.1-1-.5-2-1.1-2.8-1.8l2.3-3.5c1 .9 2.2 1.5 3.5 2 1.3.4 2.6.7 4.1.7 1.8 0 3.2-.3 4.2-1 1-.6 1.5-1.5 1.5-2.7 0-.8-.2-1.5-.7-2-.4-.5-1-.8-1.7-1.1-.7-.2-1.6-.4-2.7-.6h-.2l-.3-.1c-1.8-.3-3.3-.6-4.4-1.1-1.1-.4-2.1-1.1-2.9-2.2-.8-1-1.2-2.5-1.2-4.4 0-1.7.4-3.1 1.1-4.3.7-1.2 1.9-2.1 3.3-2.7 1.4-.6 3.2-.9 5.2-.9 1 0 1.9.1 2.9.3 1 .2 1.9.5 2.8.9.9.4 1.8.9 2.7 1.5l-2.1 3.6c-1-.7-2.1-1.3-3.1-1.7-1-.4-2.1-.6-3.1-.6-1.7 0-3 .3-3.9.9-.9.6-1.4 1.5-1.4 2.6 0 .9.2 1.5.7 2 .5.5 1.1.9 1.8 1.1.7.2 1.7.5 3 .7h.6c1.6.3 3 .7 4.1 1.2 1.1.5 2 1.2 2.8 2.2.8 1 1.1 2.4 1.1 4.2 0 1.7-.4 3.1-1.2 4.3-.8 1.2-1.9 2.1-3.4 2.7-1.5.6-3.3.9-5.4.9-1.5.4-2.7.3-3.9 0z"/><path id="Layer" fill-rule="evenodd" class="shp0" d="M110.6 134.1h-4.7l-1.8-5.1H93.8l-1.8 5.1h-4.7l10-26.7h3.2l10.1 26.7zm-7.9-9.2L99 114.3l-3.7 10.6h7.4z"/><path id="Layer" class="shp0" d="M133.7 129.9v4.2h-17.6v-26.7h4.4v22.5h13.2zm10.3-18.3v7.2h11.1v4.2H144v6.9h13.1v4.2h-17.5v-26.7h17.5v4.2H144z"/></g></g></g></svg>