<svg version="1.1" id="Шар_1" xmlns="http://www.w3.org/2000/svg" x="0" y="0" viewBox="0 0 300 300" xml:space="preserve"><style>.st0{fill:#fff}</style><path class="st0" d="M150 236.3c-.6 0-1.1-.3-1.5-.7l-15.5-18-22.1 8.8c-.5.2-1.2.2-1.7-.1-.5-.3-.9-.8-1-1.3l-5.3-23.1-23.6-2.5c-.6-.1-1.1-.4-1.4-.9s-.4-1.1-.3-1.6l6.1-23-19.8-13.2c-.5-.3-.8-.8-.9-1.4-.1-.6.1-1.2.5-1.6l16-17.5-11.4-20.8c-.3-.5-.3-1.1-.1-1.7s.6-1 1.2-1.2l22.3-8.1-.4-23.7c0-.6.2-1.1.7-1.5.4-.4 1-.6 1.6-.5l23.5 3.2 10.7-21.2c.3-.5.7-.9 1.3-1 .6-.1 1.2 0 1.6.3L150 77.8 169.3 64c.5-.3 1.1-.5 1.6-.3s1 .5 1.3 1L183 85.9l23.5-3.2c.6-.1 1.2.1 1.6.5s.7.9.7 1.5l-.4 23.7 22.3 8.1c.5.2 1 .6 1.2 1.2s.2 1.2-.1 1.7l-11.4 20.8 16 17.5c.4.4.6 1 .5 1.6s-.4 1.1-.9 1.4l-19.8 13.2 6.1 23c.1.6 0 1.2-.3 1.6-.3.5-.9.8-1.4.9l-23.6 2.5-5.3 23.1c-.1.6-.5 1.1-1 1.3-.5.3-1.1.3-1.7.1l-22.1-8.8-15.4 18c-.4.5-.9.7-1.5.7zm-16.4-23.1c.6 0 1.1.2 1.5.7l14.9 17.3 14.9-17.3c.6-.6 1.5-.9 2.3-.6l21.2 8.4 5.1-22.3c.2-.8.9-1.5 1.7-1.5l22.7-2.4-5.8-22.1c-.2-.8.1-1.7.8-2.2l19-12.7-15.4-16.8c-.6-.6-.7-1.6-.3-2.3l10.9-20.1-21.5-7.7c-.8-.3-1.3-1.1-1.3-1.9l.4-22.8-22.6 3.1c-.8.1-1.7-.3-2.1-1.1l-10.3-20.4-18.6 13.3c-.7.5-1.6.5-2.3 0l-18.6-13.3L120 89c-.4.8-1.2 1.2-2.1 1.1L95.3 87l.4 22.8c0 .9-.5 1.6-1.3 1.9l-21.5 7.7 10.9 20.1c.4.8.3 1.7-.3 2.3l-15.4 16.8 19 12.7c.7.5 1 1.3.8 2.2l-5.8 22.1 22.7 2.4c.9.1 1.5.7 1.7 1.5l5.1 22.3 21.2-8.4c.3-.1.6-.2.8-.2z"/><path class="st0" d="M106.5 164v-29h5.7l11.9 19.4V135h5.4v29h-5.9L112 145v19h-5.5zm29.3 0v-29h21.5v4.9h-15.7v6.4h14.6v4.9h-14.6v7.9h16.2v4.9h-22zm31.1 0l-6.9-29h6l4.4 20 5.3-20h7l5.1 20.3 4.5-20.3h5.9l-7.1 29h-6.2l-5.8-21.7-5.8 21.7h-6.4z"/></svg>