<svg version="1.1" id="Шар_1" xmlns="http://www.w3.org/2000/svg" x="0" y="0" viewBox="0 0 300 300" xml:space="preserve"><style>.st0{fill:#fff}</style><path class="st0" d="M233.4 140.4v-.4c-.1-.4-.9-4.3-4.9-7-2.8-2-6.5-2.8-10.9-2.6v-15.9c0-8-6.5-14.5-14.5-14.5h-24.5c-.1-2.7-.8-4.9-2.3-6.7-2.6-3.3-6.4-3.8-6.9-3.9h-.3c-.5 0-53.4-.5-63.4-.5-4.6 0-7.9 1.2-9.9 3.5-1.9 2.1-1.8 4.5-1.8 5.3v2.4H80.5c-8 0-14.5 6.5-14.5 14.5v82.2c0 8 6.5 14.5 14.5 14.5H203c8 0 14.5-6.5 14.5-14.5V182h5.2c3.8-.2 11-2.8 11.2-10.7.2-7.7-.5-30-.5-30.9zM185.1 105c2.3.4 4.1 1.3 5.5 2.8 2.7 2.9 3 7.4 3 9.3-17 .2-35.2.3-51.7.3 0-1.9.3-6.5 3-9.5 1.8-2 4.3-3 7.7-3h32.5zm-85.4-9.5c1-1.1 3.1-1.7 6.1-1.7 9.7 0 59.9.5 63.2.5 1 .2 4.4 1 4.6 5.6h-21c-1.5 0-2.8.2-4.1.5-2.9.7-5.4 2.1-7.3 4.2-3.9 4.3-4.3 10.3-4.3 12.8-15.2 0-28.6 0-37.6-.1l-.2-19.9v-.3s-.1-.8.6-1.6zM84.6 105h9.6l.1 12.3c-3.4-.1-5.6-.2-6.5-.4-2-1.1-6-3.5-3.2-11.9zm128 71.9c-12-.1-31.1-.3-37.5-.3-1.7 0-3.9-.3-5-1.6-.7-.8-.8-1.9-.8-2.5 0-.3-.5-7.5-.3-17 0-2.8.7-4.8 1.7-5.8.7-.6 1.4-.6 1.5-.6l40.3-.1v27.9zm0-32.8l-39.9.2c-.8-.1-3.1-.1-5.2 1.7-2.3 1.9-3.5 5.1-3.5 9.6-.2 8.8.3 14.9.3 16.2.1 1.4-.2 4 1.9 6.6 1.9 2.2 4.9 3.4 8.9 3.4 6.3 0 25.5.2 37.5.3v14.8c0 5.2-4.3 9.5-9.5 9.5H80.5c-5.2 0-9.5-4.3-9.5-9.5v-82.2c0-4.8 3.6-8.8 8.3-9.4-1.5 5.9-1 12.6 6.4 16.4l.1.1c1.7.8 20.4 1 44 1 27.7 0 62-.3 82.7-.6v21.9zm0-27.2c-4.5 0-9.1.1-13.9.1 0-2.6-.5-8-3.8-12.1h8.2c5.2 0 9.5 4.3 9.5 9.5v2.5zm16.3 54.3c-.1 5.1-5.5 5.8-6.4 5.8h-5v-41.6c8.9-.6 10.6 4.3 10.9 5.4.1 2.4.7 23.2.5 30.4z"/><path class="st0" d="M188.8 153.1c-5.9 0-10.6 4.8-10.6 10.6s4.8 10.6 10.6 10.6 10.6-4.8 10.6-10.6c0-5.9-4.8-10.6-10.6-10.6zm0 16.2c-3.1 0-5.6-2.5-5.6-5.6 0-3.1 2.5-5.6 5.6-5.6 3.1 0 5.6 2.5 5.6 5.6 0 3.1-2.5 5.6-5.6 5.6z"/></svg>