<svg xmlns="http://www.w3.org/2000/svg" width="205" height="153"><style>.shp0{fill:#fff}</style><g id="Layer"><path id="Layer" class="shp0" d="M203.2 72.1L114.9 150c-14.9-9.5-26.4-14-34.9-16-1.8-.4-7.7.3-9.1 1-9.7 4.4-22.3 8.5-33.4 8.5-5 0-9.7-.8-13.7-2.8C12 134.8 3 121.2 3 108.9c0-21.9 13.6-36 34.7-36 17.5 0 31.7 14.2 31.7 31.7 0 14.2-11.6 25.8-25.8 25.8-11.7 0-21.2-9.5-21.2-21.2 0-9.8 8.1-17.7 18-17.4 4 .1 7.7 2.1 10.3 5.2 7.3 9 2.4 19-5.7 21-5.9 1.4-12-2.7-12.9-8.8-.7-4.8 3.3-7.7 10.3-7.7v5c-3 0-5.4.8-5.4 1.7 0 4.4 5.6 7.6 10.1 2.6 1.4-1.5 2.3-4.4 1.9-6.4-.9-4.3-4.7-7.5-9.2-7.5-6.9 0-12.4 5.6-12.4 12.4 0 8.9 7.3 16.2 16.2 16.2 11.5 0 20.8-9.3 20.8-20.8C64.4 90 52.4 78 37.7 78 19.4 78 8 89.9 8 109c0 10.3 7.9 22.3 18 27.2 8.1 3.9 19.7 2.3 30.4-1 1.4-.4 6.8-3.5 6.8-3.5l101.3-80.3c.1-.1 27.2-4.8 38.7 20.7z"/></g><path id="Layer" class="shp0" d="M161.2 38.3c0 3.6-.5 7.1-1.5 10.3l-30.2 23.7-5 3.9-50 39.1c1.1-3.5 1.7-7.3 1.7-11.2 0-20.2-16.3-36.7-36.8-37.9l92.7-64.6c16.8 4.3 29.1 19.1 29.1 36.7z"/></svg>