<svg xmlns="http://www.w3.org/2000/svg" viewBox="0 0 30 30" width="30" height="30">
	<style>
		tspan { white-space:pre }
		.shp0 { fill: #30d5c8 } 
	</style>
	<g id="Layer">
		<path id="Layer" class="shp0" d="M6.42 17.22C4 21.19 7.77 22.54 7.77 22.54L26.71 22.54L26.71 18.96L9.79 18.96L11.05 16.65L22.94 16.65L29.6 5.42L29.5 3.39L6.7 3.39L5.64 0.2L0.32 0.2L0.32 2.72L3.51 2.72L8.53 14.32L6.42 17.22Z" />
		<path id="Layer" class="shp0" d="M8.97 29.69C7.23 29.69 5.83 28.29 5.83 26.54C5.83 24.8 7.23 23.4 8.97 23.4C10.71 23.4 12.12 24.8 12.12 26.54C12.12 28.29 10.71 29.69 8.97 29.69Z" />
		<path id="Layer" class="shp0" d="M23.85 29.69C22.11 29.69 20.71 28.29 20.71 26.54C20.71 24.8 22.11 23.4 23.85 23.4C25.59 23.4 27 24.8 27 26.54C27 28.29 25.59 29.69 23.85 29.69Z" />
	</g>
</svg>