<svg xmlns="http://www.w3.org/2000/svg" viewBox="0 0 214 214" width="214" height="214">
	<style>
		tspan { white-space:pre }
		.shp0 { fill: #676767 } 
		.shp1 { fill: none;stroke: #676767;stroke-linecap:round;stroke-linejoin:round;stroke-width: 10 } 
	</style>
	<g id="Layer">
		<path id="Layer" fill-rule="evenodd" class="shp0" d="M208.1 42.8L208.1 55.6C208.1 62.1 202.8 67.4 196.3 67.4L194.4 67.4L189.8 195.6C189.8 204.1 182.9 211 174.4 211L43.2 211C34.8 211 27.9 204.2 27.8 195.7L21.2 67.4L19.3 67.4C12.8 67.4 7.5 62.1 7.5 55.6L7.5 42.7C7.5 36.2 12.8 30.9 19.3 30.9L66.3 30.9C64.9 28.6 64.1 25.8 64.1 22.9L64.1 17.9C64.1 9.4 71 2.5 79.5 2.5L136.2 2.5C144.7 2.5 151.6 9.4 151.6 17.9L151.6 22.9C151.6 25.8 150.8 28.6 149.4 30.9L196.4 30.9C202.9 30.9 208.2 36.2 208.1 42.8ZM73.1 22.9C73.1 26.4 76 29.3 79.5 29.3L136.2 29.3C139.7 29.3 142.6 26.4 142.6 22.9L142.6 17.9C142.6 14.4 139.7 11.5 136.2 11.5L79.5 11.5C76 11.5 73.1 14.4 73.1 17.9L73.1 22.9ZM185.2 69.8L30.3 69.8L36.8 195.7C36.8 199.2 39.7 202.1 43.2 202.1L174.4 202.1C177.9 202.1 180.8 199.2 180.8 195.7L180.8 195.5L185.2 69.8ZM199.1 55.7L199.1 42.8C199.1 41.3 197.9 40.1 196.4 40.1L19.3 40.1C17.8 40.1 16.6 41.3 16.6 42.8L16.6 55.7C16.6 57.2 17.8 58.4 19.3 58.4L196.4 58.4C197.9 58.4 199.1 57.2 199.1 55.7Z" />
		<path id="Layer" class="shp1" d="M124.3 82.6L125.2 182.7" />
		<path id="Layer" class="shp1" d="M151.2 82.6L152.1 182.7" />
		<path id="Layer" class="shp1" d="M89.7 82.7L90.6 182.8" />
		<path id="Layer" class="shp1" d="M62.6 82.7L63.5 182.8" />
	</g>
</svg>