<svg xmlns="http://www.w3.org/2000/svg" viewBox="0 0 205 205" width="21" height="21">
	<style>
		tspan { white-space:pre }
		.shp0 { fill: #ef4a23 } 
	</style>
	<path id="Layer" fill-rule="evenodd" class="shp0" d="M199.8 199C197.8 201.1 195 202.2 192.3 202.2C189.6 202.2 187 201.2 185 199.2L125.5 141.7C125.4 141.6 125.4 141.5 125.3 141.4C113.1 149.9 98.3 154.9 82.3 154.9C40.6 154.9 6.7 121 6.7 79.3C6.7 37.6 40.6 3.7 82.3 3.7C124 3.7 157.9 37.6 157.9 79.3C157.9 97.5 151.4 114.2 140.7 127.2L199.6 184.2C203.8 188.2 203.9 194.8 199.8 199ZM136.9 79.3C136.9 49.2 112.4 24.7 82.3 24.7C52.2 24.7 27.7 49.2 27.7 79.3C27.7 109.4 52.2 133.9 82.3 133.9C112.4 133.9 137 109.4 136.9 79.3Z" />
</svg>