<?xml version="1.0" encoding="utf-8"?>
<!-- Generator: Adobe Illustrator 24.2.3, SVG Export Plug-In . SVG Version: 6.00 Build 0)  -->
<svg version="1.1" id="Шар_1" xmlns="http://www.w3.org/2000/svg" xmlns:xlink="http://www.w3.org/1999/xlink" x="0px" y="0px"
	 viewBox="0 0 300 300" style="enable-background:new 0 0 300 300;" xml:space="preserve">
<style type="text/css">
	.st0{fill:#FFFFFF;}
</style>
<g>
	<path class="st0" d="M265.7,145.8l-12.2-15l0,0l-20.5-44l-37.8-0.3V74.6c0-0.7-0.1-1.4-0.4-2c-1.3-3.1-4.1-3.1-6-3.1
		c-1,0-2.4,0-4.3,0c-3.6,0-8.8,0-15,0c-12.4,0-28.8,0-45.3,0c-32.9,0-65.8,0.1-65.8,0.1c-2.8,0-5,2.3-5,5c0,2.8,2.2,5,5,5h0
		c44.5-0.1,109-0.2,126.8-0.1v54.1c0,2.8,2.2,5,5,5h56.7l10,12.3v46.5h-14.1c0,0-0.1,0-0.1,0c-2.3-13.5-14-23.8-28.2-23.8
		c-14,0-25.7,10.1-28.1,23.4h-46.6v0.9c-2.1-13.7-14-24.3-28.3-24.3c-14,0-25.8,10.2-28.1,23.6H59.1c-2.8,0-5,2.2-5,5s2.2,5,5,5
		h24.3c2.4,13.4,14.1,23.6,28.1,23.6c14.3,0,26.2-10.6,28.3-24.3v0.6h46.5c2.3,13.5,14,23.8,28.2,23.8c14,0,25.7-10.1,28.1-23.4
		c0,0,0.1,0,0.2,0h19.1c2.8,0,5-2.2,5-5V149C266.8,147.9,266.4,146.7,265.7,145.8z M195.1,128.5V96.5l31.4,0.3l14.8,31.8H195.1z
		 M111.5,220.7c-10.2,0-18.6-8.3-18.6-18.6s8.3-18.6,18.6-18.6s18.6,8.3,18.6,18.6S121.7,220.7,111.5,220.7z M214.4,220.7
		c-10.3,0-18.6-8.3-18.6-18.6s8.3-18.6,18.6-18.6c10.2,0,18.6,8.3,18.6,18.6S224.7,220.7,214.4,220.7z"/>
	<path class="st0" d="M122.8,109.7h-72c-2.8,0-5-2.2-5-5s2.2-5,5-5h72c2.8,0,5,2.2,5,5S125.6,109.7,122.8,109.7z"/>
	<path class="st0" d="M111.7,138.9H38.2c-2.8,0-5-2.2-5-5s2.2-5,5-5h73.4c2.8,0,5,2.2,5,5S114.4,138.9,111.7,138.9z"/>
	<path class="st0" d="M97.3,168.8H49.7c-2.8,0-5-2.2-5-5s2.2-5,5-5h47.5c2.8,0,5,2.2,5,5S100,168.8,97.3,168.8z"/>
</g>
</svg>
