<svg xmlns="http://www.w3.org/2000/svg" viewBox="0 0 19 27" width="19" height="27">
	<style>
		tspan { white-space:pre }
		.shp0 { fill: #ffffff } 
	</style>
	<path id="Layer" fill-rule="evenodd" class="shp0" d="M18.35 11.96C17.75 14.07 14.89 18.71 12.61 22.26C12.61 22.26 9.66 26.69 9.59 26.78C9.59 26.78 6.57 22.26 6.54 22.23C6.54 22.23 1.46 14.03 0.87 11.96C-0.12 8.38 -0.75 0.63 9.59 0.47C19.62 0.31 19.34 8.38 18.35 11.96ZM13.05 9.32C13.05 7.32 11.52 5.68 9.69 5.68C7.82 5.68 6.32 7.32 6.32 9.32C6.32 11.33 7.82 12.97 9.69 12.97C11.56 12.97 13.05 11.33 13.05 9.32Z" />
</svg>