<?xml version="1.0" encoding="utf-8"?>
<!-- Generator: Adobe Illustrator 24.2.3, SVG Export Plug-In . SVG Version: 6.00 Build 0)  -->
<svg version="1.1" id="Шар_1" xmlns="http://www.w3.org/2000/svg" xmlns:xlink="http://www.w3.org/1999/xlink" x="0px" y="0px"
	 viewBox="0 0 591.84 335.88" style="enable-background:new 0 0 591.84 335.88;" xml:space="preserve">
<style type="text/css">
	.st0{fill:#555555;}
	.st1{fill:#614D9F;}
	.st2{fill:#4058A6;}
	.st3{fill:#72C8BA;}
	.st4{fill:#3493D0;}
	.st5{fill:#B1519E;}
	.st6{fill:#6EBD44;}
	.st7{fill:#D0DC27;}
	.st8{fill:#FFCC02;}
	.st9{fill:#E78824;}
	.st10{fill:#EF4A23;}
	.st11{fill:#444445;}
	.st12{font-family:'Marmelad-Regular';}
	.st13{font-size:72px;}
	.st14{fill:none;stroke:#614D9F;stroke-width:5;stroke-miterlimit:10;}
	.st15{fill:#FFFFFF;}
</style>
<path class="st0" d="M346,153.58c-0.27-5.08-0.66-10.15-0.8-15.23c-0.45-16.52-0.81-33.04-1.23-49.56
	c-0.03-1.29-0.22-2.59-0.45-3.87c-1.43-7.69-1.81-15.38,0.15-23.04c0.21-0.81,0.58-1.62,1.04-2.32c0.7-1.06,1.77-1.08,2.36,0.05
	c0.65,1.26,1.22,2.63,1.5,4.02c1.44,7.16,1.07,14.29-0.11,21.48c-0.56,3.39-0.39,6.9-0.48,10.35c-0.49,18.81-0.95,37.62-1.43,56.43
	c-0.01,0.57-0.09,1.13-0.13,1.7C346.27,153.59,346.13,153.59,346,153.58z M345.88,85.11c0.17-0.16,0.3-0.23,0.35-0.34
	c0.15-0.38,0.31-0.75,0.38-1.15c1.13-6.81,1.07-13.61-0.09-20.41c-0.09-0.52-0.41-1-0.67-1.62
	C343.69,64.74,343.77,82.23,345.88,85.11z"/>
<g>
	<path class="st0" d="M483.36,158.07c2.24-15.73,4.45-31.24,6.65-46.73c4.62-0.79,9.12-1.56,13.95-2.39
		c-0.52,3.29-0.94,6.45-1.52,9.58c-1.45,7.83-2.63,15.73-4.59,23.44c-1.02,4.03-3.12,7.89-5.3,11.48
		C490.67,156.56,487.53,158.27,483.36,158.07z"/>
	<path class="st0" d="M483.36,158.07c2.24-15.73,4.45-31.24,6.65-46.73c4.62-0.79,9.12-1.56,13.95-2.39
		c-0.52,3.29-0.94,6.45-1.52,9.58c-1.45,7.83-2.63,15.73-4.59,23.44c-1.02,4.03-3.12,7.89-5.3,11.48
		C490.67,156.56,487.53,158.27,483.36,158.07z"/>
	<path class="st0" d="M526.94,98.91c-1.29,0.2-2.36,0.18-3.29,0.54c-19.6,7.6-40.43,9.07-60.92,12.19c-7,1.07-14.02,2.01-21.04,2.99
		c-0.46,0.06-0.92,0.05-1.57,0.08c-0.09-5.22,2.94-8.21,6.81-10.68c5.65-3.61,12.15-4.58,18.54-5.75c9.26-1.7,18.54-3.42,27.88-4.52
		c4.78-0.56,9.79-0.2,14.58,0.51c5.59,0.83,10.92,0.53,16.14-1.45c3.68-1.39,7.22-3.14,10.89-4.54c2.07-0.79,4.28-1.57,6.46-1.67
		c6.3-0.27,11.03,4.49,11.11,10.79c0.1,7.87-7.04,14.84-14.91,14.57c-5.5-0.19-9.75-4.05-10.43-9.52
		C527.06,101.43,527.04,100.39,526.94,98.91z M535.65,95.04c-2.71,2.68-3,6.72-0.65,9.05c2.25,2.23,6.31,2.03,8.95-0.45
		c2.62-2.47,2.99-6.8,0.77-9.14C542.46,92.13,538.34,92.37,535.65,95.04z M495.3,102.93c1.24,1.22,3.61,1.22,4.86,0.01
		c1.23-1.2,1.27-3.59,0.08-4.86c-1.25-1.33-3.77-1.33-5.02,0C494.02,99.34,494.06,101.71,495.3,102.93z"/>
	<path class="st0" d="M503.94,89.78c-0.86,0.03-1.34,0.07-1.82,0.06c-2.64-0.04-5.29-0.09-8.13-0.14c1.87-6.05,3.74-12.08,5.6-18.08
		c-2.66-0.51-4.68-0.66-6.54-1.3c-4.37-1.5-7.06-5.93-6.83-10.83c0.33-7.24,6.7-13.54,13.93-13.8c8.6-0.31,13.87,7.73,10.5,16.1
		c-0.9,2.23-2.08,4.34-3.03,6.55C504.74,75.11,502.29,81.99,503.94,89.78z M494.71,54.22c-2.64,2.68-2.86,6.79-0.49,9.08
		c2.38,2.3,6.31,1.94,9.02-0.83c2.58-2.64,2.84-6.58,0.57-8.87C501.54,51.3,497.3,51.59,494.71,54.22z"/>
</g>
<g>
	<path class="st0" d="M156.57,233.29c-12.28,0-24.55-2.53-36.15-7.58c-22.2-9.66-39.32-27.39-48.19-49.92
		c-18.31-46.51,4.64-99.25,51.15-117.56c2.57-1.01,5.47,0.25,6.48,2.82c1.01,2.57-0.25,5.47-2.82,6.48
		c-41.38,16.29-61.8,63.21-45.51,104.59c7.89,20.05,23.12,35.82,42.87,44.42c19.75,8.6,41.67,8.98,61.72,1.09
		c2.57-1.01,5.47,0.25,6.48,2.82c1.01,2.57-0.25,5.47-2.82,6.48C179.04,231.18,167.8,233.29,156.57,233.29z"/>
	<g>
		<path class="st1" d="M170.45,97.1c-2.6,0.93-5.46-0.43-6.39-3.03l-6.56-18.4c-0.93-2.6,0.43-5.46,3.03-6.39
			c2.6-0.93,5.46,0.43,6.39,3.03l6.56,18.4C174.4,93.31,173.05,96.17,170.45,97.1z"/>
		<path class="st2" d="M153.42,133.75c-2.6,0.93-5.46-0.43-6.39-3.03l-9.67-27.13c-0.93-2.6,0.43-5.46,3.03-6.39
			c2.6-0.93,5.46,0.43,6.39,3.03l9.67,27.13C157.37,129.96,156.02,132.82,153.42,133.75z"/>
		<path class="st3" d="M117.99,203.22c-2.6,0.93-5.46-0.43-6.39-3.03l-8.31-23.31c-0.93-2.6,0.43-5.46,3.03-6.39
			c2.6-0.93,5.46,0.43,6.39,3.03l8.31,23.31C121.95,199.44,120.59,202.3,117.99,203.22z"/>
		<path class="st3" d="M100.01,152.78c-2.6,0.93-5.46-0.43-6.39-3.03l-8.01-22.47c-0.93-2.6,0.43-5.46,3.03-6.39
			s5.46,0.43,6.39,3.03l8.01,22.47C103.97,149,102.61,151.86,100.01,152.78z"/>
		<path class="st4" d="M152.91,216.76c-2.6,0.93-5.46-0.43-6.39-3.03l-7.02-19.7c-0.93-2.6,0.43-5.46,3.03-6.39
			c2.6-0.93,5.46,0.43,6.39,3.03l7.02,19.7C156.87,212.98,155.52,215.84,152.91,216.76z"/>
		<path class="st4" d="M136.38,170.39c-2.6,0.93-5.46-0.43-6.39-3.03l-9.67-27.13c-0.93-2.6,0.43-5.46,3.03-6.39
			s5.46,0.43,6.39,3.03l9.67,27.13C140.34,166.6,138.99,169.47,136.38,170.39z"/>
		<path class="st4" d="M117.78,118.21c-2.79,1-5.87-0.46-6.86-3.26l-7.05-19.77c-1-2.79,0.46-5.87,3.26-6.86
			c2.79-1,5.87,0.46,6.86,3.26l7.05,19.77C122.04,114.14,120.58,117.21,117.78,118.21z"/>
		<path class="st2" d="M172.59,187.55c-2.6,0.93-5.46-0.43-6.39-3.03l-9.51-26.68c-0.93-2.6,0.43-5.46,3.03-6.39
			c2.6-0.93,5.46,0.43,6.39,3.03l9.51,26.68C176.55,183.76,175.2,186.62,172.59,187.55z"/>
		<path class="st1" d="M206.32,197.73c-2.6,0.93-5.46-0.43-6.39-3.03l-7.02-19.7c-0.93-2.6,0.43-5.46,3.03-6.39
			c2.6-0.93,5.46,0.43,6.39,3.03l7.02,19.7C210.27,193.94,208.92,196.8,206.32,197.73z"/>
		<path class="st1" d="M189.79,151.36c-2.6,0.93-5.46-0.43-6.39-3.03l-9.67-27.13c-0.93-2.6,0.43-5.46,3.03-6.39
			c2.6-0.93,5.46,0.43,6.39,3.03l9.67,27.13C193.74,147.57,192.39,150.43,189.79,151.36z"/>
		<path class="st5" d="M224.8,165.16c-2.6,0.93-5.46-0.43-6.39-3.03l-8.31-23.32c-0.93-2.6,0.43-5.46,3.03-6.39
			c2.6-0.93,5.46,0.43,6.39,3.03l8.31,23.32C228.76,161.37,227.4,164.23,224.8,165.16z"/>
		<path class="st5" d="M206.82,114.71c-2.6,0.93-5.46-0.43-6.39-3.03l-8.01-22.47c-0.93-2.6,0.43-5.46,3.03-6.39
			c2.6-0.93,5.46,0.43,6.39,3.03l8.01,22.47C210.78,110.92,209.42,113.78,206.82,114.71z"/>
		<path class="st6" d="M164.24,205.84l-23.27,8.29c-2.6,0.93-5.46-0.43-6.39-3.03c-0.93-2.6,0.43-5.46,3.03-6.39l23.27-8.29
			c2.6-0.93,5.46,0.43,6.39,3.03C168.2,202.05,166.84,204.91,164.24,205.84z"/>
		<path class="st6" d="M190.92,196.33l-26.68,9.51c-2.6,0.93-5.46-0.43-6.39-3.03c-0.93-2.6,0.43-5.46,3.03-6.39l26.68-9.51
			c2.6-0.93,5.46,0.43,6.39,3.03C194.88,192.54,193.52,195.4,190.92,196.33z"/>
		<path class="st6" d="M213.9,188.14l-22.98,8.19c-2.6,0.93-5.46-0.43-6.39-3.03c-0.93-2.6,0.43-5.46,3.03-6.39l22.98-8.19
			c2.6-0.93,5.46,0.43,6.39,3.03C217.86,184.35,216.5,187.21,213.9,188.14z"/>
		<path class="st7" d="M227.43,153.22l-19.35,6.9c-2.6,0.93-5.46-0.43-6.39-3.03c-0.93-2.6,0.43-5.46,3.03-6.39l19.35-6.9
			c2.6-0.93,5.46,0.43,6.39,3.03C231.39,149.43,230.03,152.29,227.43,153.22z"/>
		<path class="st7" d="M208.08,160.12l-26.68,9.51c-2.6,0.93-5.46-0.43-6.39-3.03c-0.93-2.6,0.43-5.46,3.03-6.39l26.68-9.51
			c2.6-0.93,5.46,0.43,6.39,3.03C212.04,156.33,210.68,159.19,208.08,160.12z"/>
		<path class="st7" d="M181.4,169.63l-26.68,9.51c-2.6,0.93-5.46-0.43-6.39-3.03c-0.93-2.6,0.43-5.46,3.03-6.39l26.68-9.51
			c2.6-0.93,5.46,0.43,6.39,3.03C185.36,165.84,184,168.7,181.4,169.63z"/>
		<path class="st7" d="M154.73,179.14l-27.13,9.67c-2.6,0.93-5.46-0.43-6.39-3.03c-0.93-2.6,0.43-5.46,3.03-6.39l27.13-9.67
			c2.6-0.93,5.46,0.43,6.39,3.03C158.68,175.35,157.33,178.21,154.73,179.14z"/>
		<path class="st7" d="M127.6,188.81l-19.19,6.84c-2.6,0.93-5.46-0.43-6.39-3.03c-0.93-2.6,0.43-5.46,3.03-6.39l19.19-6.84
			c2.6-0.93,5.46,0.43,6.39,3.03C131.56,185.02,130.2,187.88,127.6,188.81z"/>
		<path class="st8" d="M223.06,124.69l-24.5,8.73c-2.6,0.93-5.46-0.43-6.39-3.03c-0.93-2.6,0.43-5.46,3.03-6.39l24.5-8.73
			c2.6-0.93,5.46,0.43,6.39,3.03S225.66,123.76,223.06,124.69z"/>
		<path class="st8" d="M198.56,133.42l-26.68,9.51c-2.6,0.93-5.46-0.43-6.39-3.03c-0.93-2.6,0.43-5.46,3.03-6.39L195.2,124
			c2.6-0.93,5.46,0.43,6.39,3.03S201.16,132.49,198.56,133.42z"/>
		<path class="st8" d="M171.88,142.93l-26.68,9.51c-2.6,0.93-5.46-0.43-6.39-3.03c-0.93-2.6,0.43-5.46,3.03-6.39l26.68-9.51
			c2.6-0.93,5.46,0.43,6.39,3.03C175.84,139.14,174.49,142,171.88,142.93z"/>
		<path class="st8" d="M145.21,152.44l-27.13,9.67c-2.6,0.93-5.46-0.43-6.39-3.03c-0.93-2.6,0.43-5.46,3.03-6.39l27.13-9.67
			c2.6-0.93,5.46,0.43,6.39,3.03C149.17,148.65,147.81,151.51,145.21,152.44z"/>
		<path class="st8" d="M118.08,162.11l-24.33,8.67c-2.6,0.93-5.46-0.43-6.39-3.03c-0.93-2.6,0.43-5.46,3.03-6.39l24.33-8.67
			c2.6-0.93,5.46,0.43,6.39,3.03C122.04,158.32,120.68,161.18,118.08,162.11z"/>
		<path class="st9" d="M208.4,99.82l-19.35,6.9c-2.6,0.93-5.46-0.43-6.39-3.03s0.43-5.46,3.03-6.39l19.35-6.9
			c2.6-0.93,5.46,0.43,6.39,3.03S211,98.89,208.4,99.82z"/>
		<path class="st9" d="M189.04,106.72l-26.68,9.51c-2.6,0.93-5.46-0.43-6.39-3.03s0.43-5.46,3.03-6.39l26.68-9.51
			c2.6-0.93,5.46,0.43,6.39,3.03S191.64,105.79,189.04,106.72z"/>
		<path class="st9" d="M162.37,116.23l-26.68,9.51c-2.6,0.93-5.46-0.43-6.39-3.03c-0.93-2.6,0.43-5.46,3.03-6.39l26.68-9.51
			c2.6-0.93,5.46,0.43,6.39,3.03S164.97,115.3,162.37,116.23z"/>
		<path class="st9" d="M135.69,125.74l-27.13,9.67c-2.6,0.93-5.46-0.43-6.39-3.03c-0.93-2.6,0.43-5.46,3.03-6.39l27.13-9.67
			c2.6-0.93,5.46,0.43,6.39,3.03S138.29,124.81,135.69,125.74z"/>
		<path class="st9" d="M108.56,135.41l-19.19,6.84c-2.6,0.93-5.46-0.43-6.39-3.03c-0.93-2.6,0.43-5.46,3.03-6.39l19.19-6.84
			c2.6-0.93,5.46,0.43,6.39,3.03C112.52,131.62,111.16,134.48,108.56,135.41z"/>
		<path class="st10" d="M126.17,99.04l-23.27,8.29c-2.6,0.93-5.46-0.43-6.39-3.03s0.43-5.46,3.03-6.39l23.27-8.29
			c2.6-0.93,5.46,0.43,6.39,3.03S128.78,98.11,126.17,99.04z"/>
		<path class="st10" d="M152.85,89.53l-26.68,9.51c-2.6,0.93-5.46-0.43-6.39-3.03s0.43-5.46,3.03-6.39l26.68-9.51
			c2.6-0.93,5.46,0.43,6.39,3.03S155.45,88.6,152.85,89.53z"/>
		<path class="st10" d="M175.83,81.34l-22.98,8.19c-2.6,0.93-5.46-0.43-6.39-3.03c-0.93-2.6,0.43-5.46,3.03-6.39l22.98-8.19
			c2.6-0.93,5.46,0.43,6.39,3.03S178.43,80.41,175.83,81.34z"/>
		<path class="st2" d="M144.48,108.69c-2.76,0.99-5.8-0.46-6.79-3.22l-8.92-25.02c-0.99-2.76,0.46-5.8,3.22-6.79
			c2.76-0.99,5.8,0.46,6.79,3.22l8.92,25.02C148.69,104.67,147.25,107.71,144.48,108.69z"/>
		<path class="st2" d="M163.09,160.87c-2.6,0.93-5.46-0.43-6.39-3.03l-9.67-27.13c-0.93-2.6,0.43-5.46,3.03-6.39
			c2.6-0.93,5.46,0.43,6.39,3.03l9.67,27.13C167.04,157.09,165.69,159.95,163.09,160.87z"/>
		<path class="st2" d="M181.45,212.39c-2.6,0.93-5.46-0.43-6.39-3.03l-8.85-24.84c-0.93-2.6,0.43-5.46,3.03-6.39
			c2.6-0.93,5.46,0.43,6.39,3.03l8.85,24.84C185.41,208.6,184.05,211.46,181.45,212.39z"/>
		<path class="st4" d="M126.72,143.26c-2.6,0.93-5.46-0.43-6.39-3.03l-9.67-27.13c-0.93-2.6,0.43-5.46,3.03-6.39
			s5.46,0.43,6.39,3.03l9.67,27.13C130.67,139.48,129.32,142.34,126.72,143.26z"/>
		<path class="st4" d="M145.89,197.07c-2.6,0.93-5.46-0.43-6.39-3.03L130,167.36c-0.93-2.6,0.43-5.46,3.03-6.39
			c2.6-0.93,5.46,0.43,6.39,3.03l9.51,26.68C149.85,193.28,148.49,196.14,145.89,197.07z"/>
		<path class="st1" d="M180.12,124.23c-2.6,0.93-5.46-0.43-6.39-3.03l-9.67-27.13c-0.93-2.6,0.43-5.46,3.03-6.39
			c2.6-0.93,5.46,0.43,6.39,3.03l9.67,27.13C184.07,120.44,182.72,123.3,180.12,124.23z"/>
		<path class="st1" d="M199.3,178.03c-2.6,0.93-5.46-0.43-6.39-3.03l-9.51-26.68c-0.93-2.6,0.43-5.46,3.03-6.39
			c2.6-0.93,5.46,0.43,6.39,3.03l9.51,26.68C203.25,174.25,201.9,177.11,199.3,178.03z"/>
		<path class="st5" d="M216.49,141.84c-2.6,0.93-5.46-0.43-6.39-3.03l-9.67-27.13c-0.93-2.6,0.43-5.46,3.03-6.39
			c2.6-0.93,5.46,0.43,6.39,3.03l9.67,27.13C220.45,138.05,219.09,140.91,216.49,141.84z"/>
		<path class="st3" d="M109.68,179.91c-2.6,0.93-5.46-0.43-6.39-3.03l-9.67-27.13c-0.93-2.6,0.43-5.46,3.03-6.39
			c2.6-0.93,5.46,0.43,6.39,3.03l9.67,27.13C113.64,176.12,112.28,178.98,109.68,179.91z"/>
	</g>
	<rect x="151.88" y="228.96" class="st0" width="10" height="25.2"/>
	<path class="st0" d="M180.07,259.16h-46.69c-2.76,0-5-2.24-5-5c0-2.76,2.24-5,5-5h46.69c2.76,0,5,2.24,5,5
		C185.07,256.92,182.83,259.16,180.07,259.16z"/>
</g>
<text transform="matrix(1 0 0 1 245.0398 151.3574)"><tspan x="0" y="0" class="st11 st12 st13">СВ Т</tspan><tspan x="0" y="70" class="st11 st12 st13">ТКАНИН</tspan></text>
<path class="st14" d="M259.92,104.04"/>
<g>
	<path class="st1" d="M442.19,306.65c-23.75,0-41.92-5.63-54.01-16.73c-16.34,4.2-32.29,6.33-47.41,6.33
		c-12.99,0-25.58-1.57-37.42-4.67c-20.95-5.48-40.08-15.76-56.85-30.56c-28.49-25.13-40.13-54.22-40.62-55.44
		c-0.71-1.79,0.18-3.83,1.98-4.54c0.41-0.16,0.84-0.24,1.28-0.24c1.45,0,2.73,0.87,3.26,2.22c0.11,0.28,11.68,28.94,38.85,52.86
		c17.26,15.2,46.87,33.31,89.91,33.31c13.29,0,27.28-1.73,41.62-5.13c-8.8-11.37-9.66-23.52-9.71-27.12
		c-0.1-7.91,3.08-15.76,8.74-21.54c4.86-4.96,13.91-10.89,29.47-11.01l0.38,0c13.21,0,20.79,5.33,24.82,9.8
		c5.78,6.41,7.74,14.85,7.12,20.37c-1.8,16.1-15.42,25.88-46.79,33.39c10.7,7.77,25.96,11.71,45.41,11.71
		c0.88,0,1.78-0.01,2.68-0.02c32.33-0.59,63.99-15.28,84.68-39.28c12.7-14.72,26.87-39.63,22.31-74.69
		c-3.87-29.76-44.13-59.82-113.36-84.64C380.4,80.17,309.27,66,257.33,64.93c-1.93-0.04-3.47-1.64-3.43-3.57
		c0.04-1.89,1.6-3.43,3.48-3.43l0.11,0C308.99,59,382.51,73.6,440.42,94.28c41.77,14.91,112.68,46.49,118.41,90.47
		c3.88,29.78-4.41,57.5-23.95,80.16c-21.98,25.49-55.57,41.08-89.86,41.71C444.07,306.64,443.12,306.65,442.19,306.65z
		 M411.33,231.38c-10.41,0.08-18.89,3.16-24.53,8.91c-4.37,4.46-6.82,10.49-6.74,16.55c0.04,3.4,0.93,15.13,10.33,25.4
		c31.76-6.99,44.75-14.99,46.25-28.46c0.43-3.84-1.07-10.14-5.37-14.9c-4.48-4.97-11.08-7.49-19.62-7.49L411.33,231.38z"/>
	<path class="st15" d="M257.38,59.43c0.02,0,0.04,0,0.06,0c51.37,1.06,124.7,15.63,182.48,36.26
		c41.44,14.8,111.8,46.06,117.42,89.25c3.82,29.34-4.34,56.66-23.6,78.99c-21.7,25.17-54.88,40.57-88.75,41.19
		c-0.94,0.02-1.88,0.03-2.81,0.03c-23.77,0-41.78-5.68-53.59-16.89c-16.57,4.32-32.56,6.49-47.84,6.49
		c-12.88,0-25.26-1.54-37.04-4.62c-20.72-5.42-39.64-15.59-56.24-30.24c-28.21-24.89-39.74-53.66-40.21-54.87
		c-0.4-1.03,0.1-2.19,1.13-2.59c0.24-0.09,0.49-0.14,0.73-0.14c0.8,0,1.55,0.48,1.86,1.27c0.11,0.29,11.71,29.19,39.26,53.44
		c18.96,16.69,48.65,33.69,90.9,33.69c13.47,0,28.21-1.73,44.28-5.74c-9.85-11.43-10.83-24.16-10.88-28.03
		c-0.1-7.51,2.93-14.97,8.31-20.47c4.66-4.75,13.37-10.45,28.41-10.56c0.12,0,0.25,0,0.37,0c12.63,0,19.86,5.05,23.7,9.31
		c5.46,6.06,7.32,14.01,6.74,19.19c-1.78,15.93-15.54,25.29-48.69,32.8c11.06,9.28,27.44,13.96,48.81,13.96
		c0.89,0,1.8-0.01,2.71-0.02c32.75-0.6,64.82-15.48,85.79-39.8c12.89-14.96,27.29-40.26,22.66-75.86
		c-8.89-68.3-197.35-119.99-296.02-122.03c-1.1-0.02-1.98-0.94-1.96-2.04C255.42,60.31,256.32,59.43,257.38,59.43 M389.87,283.88
		c33.11-7.19,46.66-15.64,48.25-29.94c0.46-4.16-1.13-10.96-5.74-16.07c-4.78-5.3-11.75-7.99-20.73-7.99c-0.11,0-0.23,0-0.34,0
		c-10.82,0.08-19.67,3.32-25.58,9.36c-4.64,4.74-7.26,11.16-7.17,17.62C378.61,260.54,379.59,273.09,389.87,283.88 M257.38,56.43
		c-2.69,0-4.92,2.2-4.98,4.9c-0.06,2.76,2.14,5.05,4.89,5.1c51.79,1.07,122.73,15.2,180.73,35.99c32.22,11.55,58.3,24.3,77.49,37.89
		c21.17,14.98,32.9,30.3,34.89,45.53c4.49,34.5-9.46,59.02-21.96,73.51c-20.42,23.69-51.67,38.18-83.58,38.76
		c-0.89,0.02-1.78,0.02-2.65,0.02c-17.5,0-31.51-3.21-41.76-9.56c13.89-3.53,23.75-7.44,30.74-12.16
		c8.34-5.63,12.88-12.73,13.88-21.71c0.65-5.85-1.41-14.78-7.5-21.54c-4.24-4.7-12.17-10.3-25.93-10.3l-0.39,0
		c-16.08,0.12-25.48,6.3-30.53,11.46c-5.94,6.06-9.28,14.3-9.17,22.61c0.05,3.52,0.85,14.98,8.65,26.15
		c-13.45,3.04-26.57,4.58-39.06,4.58c-42.57,0-71.85-17.91-88.92-32.94c-26.83-23.62-38.34-52.01-38.45-52.29
		c-0.76-1.92-2.58-3.16-4.65-3.16c-0.63,0-1.24,0.12-1.83,0.35c-2.57,1.01-3.83,3.92-2.82,6.48c0.49,1.24,12.26,30.65,41.02,56.02
		c16.95,14.96,36.29,25.35,57.47,30.89c11.97,3.13,24.69,4.72,37.8,4.72c15.01,0,30.81-2.08,47.01-6.17
		c12.37,11,30.67,16.58,54.42,16.58c0.95,0,1.9-0.01,2.86-0.03c34.71-0.63,68.71-16.42,90.97-42.23c19.83-23,28.23-51.12,24.3-81.34
		c-2.59-19.89-18.28-39.21-46.63-57.41c-24.1-15.47-52.87-27.18-72.76-34.28C382.88,72.14,309.16,57.5,257.5,56.43
		C257.49,56.43,257.43,56.43,257.38,56.43L257.38,56.43z M390.92,280.57c-8.5-9.72-9.32-20.57-9.36-23.76
		c-0.08-5.66,2.23-11.3,6.31-15.48c5.35-5.46,13.46-8.38,23.46-8.46l0.32,0c8.1,0,14.32,2.35,18.5,6.99
		c3.81,4.23,5.39,10.11,4.99,13.73C433.74,266.18,421.3,273.8,390.92,280.57L390.92,280.57z"/>
</g>
<path class="st0" d="M483.36,158.07c2.24-15.73,4.45-31.24,6.65-46.73c4.62-0.79,9.12-1.56,13.95-2.39
	c-0.52,3.29-0.94,6.45-1.52,9.58c-1.45,7.83-2.63,15.73-4.59,23.44c-1.02,4.03-3.12,7.89-5.3,11.48
	C490.67,156.56,487.53,158.27,483.36,158.07z"/>
<path class="st0" d="M346.85,81.6c-0.08,0.65-0.16,1.29-0.27,1.94c-0.07,0.39-0.23,0.77-0.38,1.15c-0.04,0.11-0.18,0.18-0.35,0.34
	c-2.12-2.88-2.19-20.38-0.03-23.52c0.19,0.46,0.42,0.84,0.56,1.22c0.22-0.83,0.49-1.64,0.79-2.44c-0.04-0.4-0.09-0.67-0.14-0.76
	c-0.58-1.12-1.66-1.11-2.36-0.05c-0.46,0.7-0.83,1.51-1.04,2.32c-1.96,7.66-1.59,15.34-0.15,23.04c0.24,1.27,0.42,2.58,0.45,3.87
	c0.42,16.52,0.78,33.04,1.23,49.56c0.14,5.08,0.53,10.15,0.8,15.23c0.13,0,0.27,0.01,0.4,0.01c0.05-0.57,0.12-1.13,0.13-1.7
	c0.48-18.81,0.94-37.62,1.43-56.43c0.03-1.13,0.01-5.23-0.05-10.28C347.48,83.96,347.13,82.79,346.85,81.6z"/>
</svg>
