<svg xmlns="http://www.w3.org/2000/svg" viewBox="0 0 203 203" width="203" height="203">
	<style>
		tspan { white-space:pre }
		.shp0 { fill: red } 
	</style>
	<path id="Layer" fill-rule="evenodd" class="shp0" d="M197.8 198C195.8 200.1 193 201.2 190.3 201.2C187.6 201.2 185 200.2 183 198.2L123.5 140.7C123.4 140.6 123.4 140.5 123.3 140.4C111.1 148.9 96.3 153.9 80.3 153.9C38.6 153.9 4.7 120 4.7 78.3C4.7 36.6 38.6 2.7 80.3 2.7C122 2.7 155.9 36.6 155.9 78.3C155.9 96.5 149.4 113.2 138.7 126.2L197.6 183.2C201.8 187.2 201.9 193.8 197.8 198ZM134.9 78.3C134.9 48.2 110.4 23.7 80.3 23.7C50.2 23.7 25.7 48.2 25.7 78.3C25.7 108.4 50.2 132.9 80.3 132.9C110.4 132.9 135 108.4 134.9 78.3Z" />
</svg>