<?xml version="1.0" encoding="utf-8"?>
<!-- Generator: Adobe Illustrator 24.2.3, SVG Export Plug-In . SVG Version: 6.00 Build 0)  -->
<svg version="1.1" id="Шар_1" xmlns="http://www.w3.org/2000/svg" xmlns:xlink="http://www.w3.org/1999/xlink" x="0px" y="0px"
	 viewBox="0 0 383.7 282.6" style="enable-background:new 0 0 383.7 282.6;" xml:space="preserve">
<style type="text/css">
	.st0{fill:#ffffff;}
</style>
<path class="st0" d="M292.6,227.2l-58.9-57c10.7-13,17.2-29.7,17.2-47.9c0-41.7-33.9-75.6-75.6-75.6s-75.6,33.9-75.6,75.6
	s33.9,75.6,75.6,75.6c16,0,30.8-5,43-13.5c0.1,0.1,0.1,0.2,0.2,0.3l59.5,57.5c2,2,4.6,3,7.3,3c2.7,0,5.5-1.1,7.5-3.2
	C296.9,237.8,296.8,231.2,292.6,227.2z M175.3,176.9c-30.1,0-54.6-24.5-54.6-54.6c0-30.1,24.5-54.6,54.6-54.6
	c30.1,0,54.6,24.5,54.6,54.6C230,152.4,205.4,176.9,175.3,176.9z"/>
</svg>
