<?xml version="1.0" encoding="utf-8"?>
<!-- Generator: Adobe Illustrator 24.2.3, SVG Export Plug-In . SVG Version: 6.00 Build 0)  -->
<svg version="1.1" id="Шар_1" xmlns="http://www.w3.org/2000/svg" xmlns:xlink="http://www.w3.org/1999/xlink" x="0px" y="0px"
	 viewBox="0 0 300 300" style="enable-background:new 0 0 300 300;" xml:space="preserve">
<style type="text/css">
	.st0{fill:#FFFFFF;}
</style>
<g>
	<path class="st0" d="M233.4,140.4l0-0.4c-0.1-0.4-0.9-4.3-4.9-7c-2.8-2-6.5-2.8-10.9-2.6v-15.9c0-8-6.5-14.5-14.5-14.5h-24.5
		c-0.1-2.7-0.8-4.9-2.3-6.7c-2.6-3.3-6.4-3.8-6.9-3.9l-0.3,0c-0.5,0-53.4-0.5-63.4-0.5c-4.6,0-7.9,1.2-9.9,3.5
		c-1.9,2.1-1.8,4.5-1.8,5.3l0,2.4H80.5c-8,0-14.5,6.5-14.5,14.5v82.2c0,8,6.5,14.5,14.5,14.5h122.5c8,0,14.5-6.5,14.5-14.5V182
		c3,0,5,0,5,0h0.2c3.8-0.2,11-2.8,11.2-10.7C234.1,163.6,233.4,141.3,233.4,140.4z M185.1,105c2.3,0.4,4.1,1.3,5.5,2.8
		c2.7,2.9,3,7.4,3,9.3c-17,0.2-35.2,0.3-51.7,0.3c0-1.9,0.3-6.5,3-9.5c1.8-2,4.3-3,7.7-3H185.1z M99.7,95.5c1-1.1,3.1-1.7,6.1-1.7
		c9.7,0,59.9,0.5,63.2,0.5c1,0.2,4.4,1,4.6,5.6h-21c-1.5,0-2.8,0.2-4.1,0.5c-2.9,0.7-5.4,2.1-7.3,4.2c-3.9,4.3-4.3,10.3-4.3,12.8
		c-15.2,0-28.6,0-37.6-0.1l-0.2-19.9l0-0.1l0-0.2C99.1,97.1,99,96.3,99.7,95.5z M84.6,105h9.6l0.1,12.3c-3.4-0.1-5.6-0.2-6.5-0.4
		C85.8,115.8,81.8,113.4,84.6,105z M212.6,176.9c-12-0.1-31.1-0.3-37.5-0.3c-1.7,0-3.9-0.3-5-1.6c-0.7-0.8-0.8-1.9-0.8-2.5
		c0-0.3-0.5-7.5-0.3-17c0-2.8,0.7-4.8,1.7-5.8c0.7-0.6,1.4-0.6,1.5-0.6c0,0,0,0,0,0l40.3-0.1V176.9z M212.6,144.1l-39.9,0.2
		c-0.8-0.1-3.1-0.1-5.2,1.7c-2.3,1.9-3.5,5.1-3.5,9.6c-0.2,8.8,0.3,14.9,0.3,16.2c0.1,1.4-0.2,4,1.9,6.6c1.9,2.2,4.9,3.4,8.9,3.4
		c6.3,0,25.5,0.2,37.5,0.3v14.8c0,5.2-4.3,9.5-9.5,9.5H80.5c-5.2,0-9.5-4.3-9.5-9.5v-82.2c0-4.8,3.6-8.8,8.3-9.4
		c-1.5,5.9-1,12.6,6.4,16.4l0.1,0.1c1.7,0.8,20.4,1,44,1c27.7,0,62-0.3,82.7-0.6V144.1z M212.6,116.9c-4.5,0-9.1,0.1-13.9,0.1
		c0-2.6-0.5-8-3.8-12.1h8.2c5.2,0,9.5,4.3,9.5,9.5V116.9z M228.9,171.2c-0.1,5.1-5.5,5.8-6.4,5.8c-0.5,0-2.3,0-5,0v-41.6
		c8.9-0.6,10.6,4.3,10.9,5.4C228.5,143.2,229.1,164,228.9,171.2z"/>
	<path class="st0" d="M188.8,153.1c-5.9,0-10.6,4.8-10.6,10.6c0,5.8,4.8,10.6,10.6,10.6c5.8,0,10.6-4.8,10.6-10.6
		C199.4,157.8,194.6,153.1,188.8,153.1z M188.8,169.3c-3.1,0-5.6-2.5-5.6-5.6c0-3.1,2.5-5.6,5.6-5.6c3.1,0,5.6,2.5,5.6,5.6
		C194.4,166.8,191.9,169.3,188.8,169.3z"/>
</g>
</svg>
