<svg xmlns="http://www.w3.org/2000/svg">
    <symbol id="lupa" viewBox="0 0 21 21" width="21" height="21">
	    <path fill-rule="evenodd" d="M195.8 199C193.8 201.1 191 202.2 188.3 202.2C185.6 202.2 183 201.2 181 199.2L121.5 141.7C121.4 141.6 121.4 141.5 121.3 141.4C109.1 149.9 94.3 154.9 78.3 154.9C36.6 154.9 2.7 121 2.7 79.3C2.7 37.6 36.6 3.7 78.3 3.7C120 3.7 153.9 37.6 153.9 79.3C153.9 97.5 147.4 114.2 136.7 127.2L195.6 184.2C199.8 188.2 199.9 194.8 195.8 199ZM132.9 79.3C132.9 49.2 108.4 24.7 78.3 24.7C48.2 24.7 23.7 49.2 23.7 79.3C23.7 109.4 48.2 133.9 78.3 133.9C108.4 133.9 133 109.4 132.9 79.3Z" />
    </symbol>
</svg>