<svg xmlns="http://www.w3.org/2000/svg" viewBox="0 0 14 22" width="14" height="22">
	<style>
		tspan { white-space:pre }
		.shp0 { fill: #ffffff } 
	</style>
	<path id="Layer" fill-rule="evenodd" class="shp0" d="M13.87 3.12L13.87 18.88C13.87 20.47 12.6 21.76 11.05 21.76L3.1 21.76C1.55 21.76 0.28 20.47 0.28 18.88L0.28 3.12C0.28 1.53 1.55 0.24 3.1 0.24L11.07 0.24C12.62 0.24 13.88 1.53 13.87 3.12ZM9.13 18.62L5.03 18.62L5.03 20.19L9.13 20.19C9.13 20.19 9.13 18.62 9.13 18.62ZM12.22 2.87L1.82 2.87L1.82 16.78L12.22 16.78L12.22 2.87Z" />
</svg>