<?xml version="1.0" encoding="utf-8"?>
<!-- Generator: Adobe Illustrator 24.2.3, SVG Export Plug-In . SVG Version: 6.00 Build 0)  -->
<svg version="1.1" id="Шар_1" xmlns="http://www.w3.org/2000/svg" xmlns:xlink="http://www.w3.org/1999/xlink" x="0px" y="0px"
	 viewBox="0 0 300 300" style="enable-background:new 0 0 300 300;" xml:space="preserve">
<style type="text/css">
	.st0{fill:#FFFFFF;}
	.st1{enable-background:new    ;}
</style>
<g>
	<path class="st0" d="M150,236.3c-0.6,0-1.1-0.3-1.5-0.7l-15.5-18l-22.1,8.8c-0.5,0.2-1.2,0.2-1.7-0.1c-0.5-0.3-0.9-0.8-1-1.3
		l-5.3-23.1l-23.6-2.5c-0.6-0.1-1.1-0.4-1.4-0.9s-0.4-1.1-0.3-1.6l6.1-23l-19.8-13.2c-0.5-0.3-0.8-0.8-0.9-1.4
		c-0.1-0.6,0.1-1.2,0.5-1.6l16-17.5l-11.4-20.8c-0.3-0.5-0.3-1.1-0.1-1.7s0.6-1,1.2-1.2l22.3-8.1l-0.4-23.7c0-0.6,0.2-1.1,0.7-1.5
		c0.4-0.4,1-0.6,1.6-0.5l23.5,3.2l10.7-21.2c0.3-0.5,0.7-0.9,1.3-1c0.6-0.1,1.2,0,1.6,0.3L150,77.8L169.3,64
		c0.5-0.3,1.1-0.5,1.6-0.3s1,0.5,1.3,1L183,85.9l23.5-3.2c0.6-0.1,1.2,0.1,1.6,0.5s0.7,0.9,0.7,1.5l-0.4,23.7l22.3,8.1
		c0.5,0.2,1,0.6,1.2,1.2s0.2,1.2-0.1,1.7l-11.4,20.8l16,17.5c0.4,0.4,0.6,1,0.5,1.6s-0.4,1.1-0.9,1.4l-19.8,13.2l6.1,23
		c0.1,0.6,0,1.2-0.3,1.6c-0.3,0.5-0.9,0.8-1.4,0.9l-23.6,2.5l-5.3,23.1c-0.1,0.6-0.5,1.1-1,1.3c-0.5,0.3-1.1,0.3-1.7,0.1l-22.1-8.8
		l-15.4,18C151.1,236.1,150.6,236.3,150,236.3z M133.6,213.2c0.6,0,1.1,0.2,1.5,0.7l14.9,17.3l14.9-17.3c0.6-0.6,1.5-0.9,2.3-0.6
		l21.2,8.4l5.1-22.3c0.2-0.8,0.9-1.5,1.7-1.5l22.7-2.4l-5.8-22.1c-0.2-0.8,0.1-1.7,0.8-2.2l19-12.7l-15.4-16.8
		c-0.6-0.6-0.7-1.6-0.3-2.3l10.9-20.1l-21.5-7.7c-0.8-0.3-1.3-1.1-1.3-1.9l0.4-22.8l-22.6,3.1c-0.8,0.1-1.7-0.3-2.1-1.1l-10.3-20.4
		l-18.6,13.3c-0.7,0.5-1.6,0.5-2.3,0l-18.6-13.3L120,89c-0.4,0.8-1.2,1.2-2.1,1.1L95.3,87l0.4,22.8c0,0.9-0.5,1.6-1.3,1.9l-21.5,7.7
		l10.9,20.1c0.4,0.8,0.3,1.7-0.3,2.3l-15.4,16.8l19,12.7c0.7,0.5,1,1.3,0.8,2.2l-5.8,22.1l22.7,2.4c0.9,0.1,1.5,0.7,1.7,1.5
		l5.1,22.3l21.2-8.4C133.1,213.3,133.4,213.2,133.6,213.2z"/>
	<g class="st1">
		<path class="st0" d="M106.5,164v-29h5.7l11.9,19.4v-19.4h5.4v29h-5.9L112,145V164H106.5z"/>
		<path class="st0" d="M135.8,164v-29h21.5v4.9h-15.7v6.4h14.6v4.9h-14.6v7.9h16.2v4.9H135.8z"/>
		<path class="st0" d="M166.9,164l-6.9-29h6l4.4,20l5.3-20h7l5.1,20.3l4.5-20.3h5.9l-7.1,29h-6.2l-5.8-21.7l-5.8,21.7H166.9z"/>
	</g>
</g>
</svg>
