<?xml version="1.0" encoding="utf-8"?>
<!-- Generator: Adobe Illustrator 24.2.3, SVG Export Plug-In . SVG Version: 6.00 Build 0)  -->
<svg version="1.1" id="Шар_1" xmlns="http://www.w3.org/2000/svg" xmlns:xlink="http://www.w3.org/1999/xlink" x="0px" y="0px"
	 viewBox="0 0 300 300" style="enable-background:new 0 0 300 300;" xml:space="preserve">
<style type="text/css">
	.st0{fill:#FFFFFF;}
</style>
<g>
	<rect x="129.5" y="185.6" class="st0" width="81.3" height="5"/>
	<rect x="129.5" y="205.9" class="st0" width="81.3" height="5"/>
	<path class="st0" d="M209.2,49.5H163c-14.4-20.2-29.6-25.3-37.5-20.1c-6.6,4.3-9.5,15.5-3,31.3l-13,15.8V116L67.5,231.4l115.2,41.1
		l20.1-42.4h29.7V78.8L209.2,49.5z M127.7,32.7c6-3.9,17.9-0.2,30.4,16.8h-26.4l-6.3,7.6C120.9,44.9,122.6,36,127.7,32.7z
		 M180.1,266.3L73.9,228.4l35.5-97v98.8h87.8L180.1,266.3z M227.5,225.1h-113V78.3l10.3-12.6c0.9,1.7,1.9,3.5,3,5.4
		c8.1,13.5,17.1,21.3,26.5,23.2c2.2,7.3,8.9,12.7,17,12.7c9.8,0,17.7-7.9,17.7-17.7s-7.9-17.7-17.7-17.7s-17.7,7.9-17.7,17.7
		c0,0.3,0,0.5,0,0.8c-7.8-2.2-15.3-9.2-22.4-21c-1.4-2.3-2.6-4.5-3.6-6.7l6.5-7.8h72.7l20.7,26V225.1z M170.4,86.6
		c0,0-4.2,3.8-10.8,4.1c-0.1-0.5-0.1-1-0.1-1.5c0-6.4,5.2-11.7,11.7-11.7c0.7,0,1.5,0.1,2.2,0.2C172.9,80.3,172.9,84.4,170.4,86.6z
		 M177.3,79.2c3.4,2,5.7,5.8,5.7,10c0,6.4-5.2,11.7-11.7,11.7c-4.5,0-8.4-2.6-10.4-6.3c7.5-0.7,12.2-5.1,12.3-5.1
		C176.1,86.8,176.9,81.6,177.3,79.2z"/>
	<g>
		<g>
			<path class="st0" d="M130.3,158c-1.2-0.3-2.3-0.6-3.3-1.1s-2-1.1-2.8-1.8l2.3-3.5c1,0.9,2.2,1.5,3.5,2c1.3,0.4,2.6,0.7,4.1,0.7
				c1.8,0,3.2-0.3,4.2-1c1-0.6,1.5-1.5,1.5-2.7v0c0-0.8-0.2-1.5-0.7-2c-0.4-0.5-1-0.8-1.7-1.1c-0.7-0.2-1.6-0.4-2.7-0.6
				c0,0-0.1,0-0.1,0s-0.1,0-0.1,0l-0.3-0.1c-1.8-0.3-3.3-0.6-4.4-1.1c-1.1-0.4-2.1-1.1-2.9-2.2c-0.8-1-1.2-2.5-1.2-4.4v0
				c0-1.7,0.4-3.1,1.1-4.3s1.9-2.1,3.3-2.7c1.4-0.6,3.2-0.9,5.2-0.9c1,0,1.9,0.1,2.9,0.3s1.9,0.5,2.8,0.9c0.9,0.4,1.8,0.9,2.7,1.5
				l-2.1,3.6c-1-0.7-2.1-1.3-3.1-1.7s-2.1-0.6-3.1-0.6c-1.7,0-3,0.3-3.9,0.9c-0.9,0.6-1.4,1.5-1.4,2.6v0c0,0.9,0.2,1.5,0.7,2
				s1.1,0.9,1.8,1.1c0.7,0.2,1.7,0.5,3,0.7c0.1,0,0.1,0,0.1,0c0,0,0.1,0,0.1,0c0.1,0,0.1,0,0.2,0c0.1,0,0.1,0,0.2,0
				c1.6,0.3,3,0.7,4.1,1.2c1.1,0.5,2,1.2,2.8,2.2s1.1,2.4,1.1,4.2v0c0,1.7-0.4,3.1-1.2,4.3c-0.8,1.2-1.9,2.1-3.4,2.7
				c-1.5,0.6-3.3,0.9-5.4,0.9C132.7,158.4,131.5,158.3,130.3,158z"/>
			<path class="st0" d="M161.5,131.4h-3.2l-10,26.7h4.7l1.8-5.1h10.3l1.8,5.1h4.7L161.5,131.4z M156.3,148.9l3.7-10.6l3.7,10.6
				H156.3z"/>
			<polygon class="st0" points="194.7,153.9 194.7,158.1 177.1,158.1 177.1,131.4 181.5,131.4 181.5,153.9 			"/>
			<polygon class="st0" points="205,135.6 205,142.8 216.1,142.8 216.1,147 205,147 205,153.9 218.1,153.9 218.1,158.1 200.6,158.1 
				200.6,131.4 218.1,131.4 218.1,135.6 			"/>
		</g>
	</g>
</g>
</svg>
