<?xml version="1.0" encoding="utf-8"?>
<!-- Generator: Adobe Illustrator 24.2.3, SVG Export Plug-In . SVG Version: 6.00 Build 0)  -->
<svg version="1.1" id="Шар_1" xmlns="http://www.w3.org/2000/svg" xmlns:xlink="http://www.w3.org/1999/xlink" x="0px" y="0px"
	 viewBox="0 0 175 165" style="enable-background:new 0 0 175 165;" xml:space="preserve">
<style type="text/css">
	.st0{fill:#FFFFFF;}
</style>
<path class="st0" d="M87.8,25.5c-33.2,0.5-31.2,25.2-28,36.6C61.7,68.7,78,94.8,78,94.8c0.1,0.1,9.8,14.5,9.8,14.5
	c0.2-0.3,9.7-14.4,9.7-14.4c7.3-11.3,16.5-26.1,18.4-32.8C119.1,50.7,120,25,87.8,25.5z M88.1,65.3c-6,0-10.8-5.2-10.8-11.6
	c0-6.4,4.8-11.6,10.8-11.6c5.9,0,10.8,5.2,10.8,11.6C98.9,60.1,94.1,65.3,88.1,65.3z"/>
</svg>
