<?xml version="1.0" encoding="utf-8"?>
<!-- Generator: Adobe Illustrator 24.2.3, SVG Export Plug-In . SVG Version: 6.00 Build 0)  -->
<svg version="1.1" id="Шар_1" xmlns="http://www.w3.org/2000/svg" xmlns:xlink="http://www.w3.org/1999/xlink" x="0px" y="0px"
	 viewBox="0 0 383.7 282.6" style="enable-background:new 0 0 383.7 282.6;" xml:space="preserve">
<style type="text/css">
	.st0{fill:#676767;}
	.st1{fill:none;stroke:#676767;stroke-width:10;stroke-linecap:round;stroke-linejoin:round;stroke-miterlimit:10;}
</style>
<g>
	<path class="st0" d="M279.4,59.9h-47c1.4-2.3,2.2-5.1,2.2-8v-5c0-8.5-6.9-15.4-15.4-15.4h-56.7c-8.5,0-15.4,6.9-15.4,15.4v5
		c0,2.9,0.8,5.7,2.2,8h-47c-6.5,0-11.8,5.3-11.8,11.8v12.9c0,6.5,5.3,11.8,11.8,11.8h1.9l6.6,128.3c0.1,8.5,7,15.3,15.4,15.3h131.2
		c8.5,0,15.4-6.9,15.4-15.4l4.6-128.2h1.9c6.5,0,11.8-5.3,11.8-11.8V71.8C291.2,65.2,285.9,59.9,279.4,59.9z M156.1,46.9
		c0-3.5,2.9-6.4,6.4-6.4h56.7c3.5,0,6.4,2.9,6.4,6.4v5c0,3.5-2.9,6.4-6.4,6.4h-56.7c-3.5,0-6.4-2.9-6.4-6.4V46.9z M263.8,224.5v0.2
		c0,3.5-2.9,6.4-6.4,6.4H126.2c-3.5,0-6.4-2.9-6.4-6.4l-6.5-125.9h154.9L263.8,224.5z M282.1,84.7c0,1.5-1.2,2.7-2.7,2.7H102.3
		c-1.5,0-2.7-1.2-2.7-2.7V71.8c0-1.5,1.2-2.7,2.7-2.7h177.1c1.5,0,2.7,1.2,2.7,2.7V84.7z"/>
	<line class="st1" x1="207.3" y1="111.6" x2="208.2" y2="211.7"/>
	<line class="st1" x1="234.2" y1="111.6" x2="235.1" y2="211.7"/>
	<line class="st1" x1="172.7" y1="111.7" x2="173.6" y2="211.8"/>
	<line class="st1" x1="145.6" y1="111.7" x2="146.5" y2="211.8"/>
</g>
</svg>
